<?xml version="1.0" encoding="UTF-8"?>
<svg id="_レイヤー_2" data-name="レイヤー 2" xmlns="http://www.w3.org/2000/svg" viewBox="0 0 86.89 27.27">
  <defs>
    <style>
      .cls-1 {
        fill: #684723;
      }
    </style>
  </defs>
  <g id="header">
    <g>
      <g>
        <path class="cls-1" d="M55.65,16.5c-.05.2-.23.35-.44.35h-7.92c-.2,0-.36-.16-.36-.36V.81c0-.2.16-.36.36-.36h2.64c.2,0,.36.16.36.36v13.14c0,.1.08.18.18.18h5.48c.1,0,.18.1.16.2l-.46,2.18Z"/>
        <path class="cls-1" d="M21.27.28c4.36,0,7.04,3.18,7.04,8.31,0,3.7-1.3,6.45-3.65,7.77-.99.54-1.91.75-3.27.75-2.47,0-4.07-.68-5.32-2.31-1.25-1.6-1.88-3.67-1.88-6.07,0-3.53,1.37-6.36,3.7-7.65.96-.52,2.17-.8,3.39-.8ZM21.22,2.79c-1.11,0-2.1.57-2.54,1.45-.56,1.06-.82,2.51-.82,4.5,0,2.84.49,4.6,1.46,5.33.52.38,1.18.57,1.95.57,2.28,0,3.25-1.75,3.25-5.95,0-1.68-.14-2.89-.42-3.81-.26-.83-1.13-2.08-2.87-2.08Z"/>
        <path class="cls-1" d="M32.06.81c0-.2.16-.36.36-.36h3.95c2.78,0,3.63.28,4.54.8,1.53.85,2.35,2.36,2.35,4.24,0,2.17-1.04,3.96-2.83,4.8-.75.35-1.46.54-3.27.54h-1.63c-.1,0-.18.08-.18.18v5.48c0,.2-.16.36-.36.36h-2.57c-.2,0-.36-.16-.36-.36V.81ZM35.54,2.92c-.1,0-.18.08-.18.18v5.06c0,.1.08.18.18.18h1.54c1.34,0,1.74-.36,2.19-1.04.28-.45.4-.97.4-1.74,0-1.53-.82-2.64-2.21-2.64h-1.91Z"/>
        <path class="cls-1" d="M59.16.81c0-.2.16-.36.36-.36h2.64c.2,0,.36.16.36.36v10.45c0,1.22.05,1.51.28,1.95.38.73,1.15,1.13,2.24,1.13,1.44,0,2.35-.71,2.5-1.91.05-.35.05-.59.05-1.46V.81c0-.2.16-.36.36-.36h2.62c.2,0,.36.16.36.36v10.71c0,1.55-.02,1.86-.26,2.57-.42,1.29-2.02,3.08-5.56,3.08-2.5,0-4.31-.76-5.25-2.19-.54-.85-.71-1.51-.71-3.08V.81Z"/>
        <path class="cls-1" d="M86.33,1.46c.16.11.18.33.08.49l-1.16,1.75c-.1.16-.31.24-.47.14-1.35-.78-2.39-1.09-3.54-1.09-1.34,0-2.28.78-2.28,1.88,0,.85.45,1.27,1.81,1.65l1.98.54c2.69.73,4.14,2.45,4.14,4.87,0,3.32-2.68,5.51-6.76,5.51-1.74,0-3.67-.48-5.27-1.31-.18-.1-.25-.32-.16-.5l.91-1.91c.08-.17.27-.26.44-.18,1.41.72,2.67,1.17,4.21,1.17,1.88,0,2.87-.78,2.87-2.23,0-1.06-.68-1.74-2.14-2.12l-1.81-.49c-1.62-.45-2.64-1.08-3.23-2.07-.45-.73-.68-1.58-.68-2.5,0-2.99,2.4-5.06,5.86-5.06,1.88,0,3.77.54,5.19,1.46Z"/>
        <path class="cls-1" d="M11.24,1.23c.16.11.18.35.07.51l-1.08,1.64c-.11.17-.34.2-.51.09-.73-.47-1.5-.7-2.3-.7-1.11,0-2.19.54-2.78,1.41-.63.94-.92,2.31-.92,4.21,0,2.24.19,3.48.68,4.38.66,1.2,1.74,1.84,3.15,1.84.9,0,1.67-.26,2.47-.8.01,0,.02-.02.04-.03.16-.12.39-.1.51.06l1.08,1.49c.12.16.1.39-.06.5-1.22.91-2.54,1.32-4.27,1.32-2.26,0-4-.73-5.34-2.26-1.32-1.48-1.98-3.46-1.98-5.86,0-2.05.35-3.67,1.11-5.09C2.38,1.55,4.73.14,7.37.14c1.47,0,2.95.42,3.87,1.08Z"/>
      </g>
      <g>
        <path class="cls-1" d="M16.48,24.42v-2.86h1.95v.66h-1.22v2.2h-.73Z"/>
        <path class="cls-1" d="M22.04,22.98c.25.4.46.6.85.81-.13.19-.21.34-.3.56-.32-.26-.47-.43-.68-.75.02.26.02.48.02.63v.32c0,.26,0,.36.03.51h-.66c.02-.13.03-.28.03-.51v-.32s0-.09,0-.23c0,0,0-.06,0-.13s0-.07.01-.26c-.23.44-.46.76-.85,1.14-.1-.2-.2-.36-.35-.55.43-.31.79-.74,1.01-1.24h-.3c-.24,0-.39,0-.53.02v-.62c.15.02.27.02.54.02h.46v-.23c0-.19-.01-.32-.03-.45h.66c-.02.14-.03.23-.03.47v.21h.35c.21,0,.31,0,.48-.02v.62c-.15-.02-.31-.02-.47-.02h-.25ZM20.24,26.52c.35-.46.46-.7.62-1.32l.56.24c-.2.71-.26.85-.63,1.46l-.54-.38ZM22.33,26.22c0,.11.03.15.12.18.08.02.21.04.38.04.66,0,.84-.02.92-.1.06-.07.09-.24.1-.57.23.1.35.13.63.17-.09,1.03-.17,1.09-1.45,1.09-.55,0-.77-.01-.95-.06-.3-.08-.38-.2-.38-.52v-.68c0-.26,0-.36-.03-.56h.7c-.02.14-.03.25-.03.56v.47ZM22.93,24.94c.01-.17.02-.3.02-.49v-2c0-.23,0-.4-.02-.54.17.02.34.02.57.02h1.28c.23,0,.39,0,.56-.02-.02.15-.02.31-.02.54v2.01c0,.22,0,.4.02.57,0,0-.18,0-.54-.02h-1.34c-.13,0-.19,0-.38,0,.2.19.38.39.65.73l-.49.38c-.27-.43-.38-.56-.72-.9l.42-.27ZM23.54,22.8h1.15v-.34h-1.15v.34ZM23.54,23.62h1.15v-.34h-1.15v.34ZM23.54,24.47h1.15v-.35h-1.15v.35ZM25.08,26.85c-.29-.63-.48-.96-.82-1.42l.56-.27c.38.51.57.8.85,1.34l-.58.35Z"/>
        <path class="cls-1" d="M27.79,23.01c0-.18,0-.41-.02-.55.28.03.49.07.65.13.15.06.2.09.2.16t-.02.1c-.08.21-.1.44-.1.99,0,.78.05,1.27.17,1.64.09.29.23.45.4.45.25,0,.46-.29.68-.97.12.31.16.4.33.62.03.04.05.09.05.13,0,.1-.09.3-.21.48-.24.35-.54.54-.87.54-.47,0-.82-.38-1.04-1.13-.14-.49-.21-1.1-.21-1.96v-.64ZM31.42,23.11s.07.02.12.06c.3.29.62.78.82,1.26.13.32.26.76.26.88,0,.06-.03.09-.16.16-.14.07-.43.17-.5.17-.05,0-.08-.03-.1-.14-.08-.47-.19-.81-.38-1.21-.17-.35-.18-.37-.6-.88.26-.19.46-.3.53-.3Z"/>
        <path class="cls-1" d="M36.32,24.41v2.86h-1.95v-.66h1.23v-2.19h.72Z"/>
        <path class="cls-1" d="M41.15,25.23c-.6.35-.77.53-.77.8,0,.11.04.18.13.24.13.08.43.12.82.12.33,0,.79-.03,1.1-.07.13-.02.2-.04.45-.1h.03s.07.03.09.07c.04.13.06.31.06.53,0,.09-.03.13-.11.15-.15.03-.82.07-1.27.07-.74,0-1.14-.05-1.43-.17-.35-.15-.53-.42-.53-.81,0-.35.16-.66.49-.93.26-.21.32-.25.88-.57-.05-.2-.14-.29-.33-.29-.25,0-.51.1-.8.29-.18.12-.38.29-.51.42-.18.19-.2.2-.25.2-.06,0-.19-.14-.32-.35-.06-.1-.1-.18-.1-.23,0-.06.01-.07.16-.16.5-.34.92-.76,1.17-1.2-.43.03-.66.04-.9.04-.09,0-.11-.02-.14-.12-.02-.08-.05-.4-.05-.57.21.03.33.04.62.04.24,0,.5,0,.77-.02.13-.35.17-.57.18-.85.54.09.79.18.79.29,0,.02,0,.04-.02.07-.04.08-.09.18-.17.37t-.02.04c.35-.05.65-.11.87-.16.13-.04.16-.04.2-.04.05,0,.07.02.09.06.02.11.06.39.06.48,0,.07-.02.1-.1.12-.2.06-.87.16-1.43.21-.18.34-.31.53-.5.74.27-.13.48-.18.73-.18.27,0,.46.16.58.5.6-.33.93-.51.96-.53.28-.16.4-.26.53-.41.25.26.52.64.52.74,0,.04-.02.06-.1.08-.3.08-.85.32-1.78.77,0,.11.02.39.02.59v.29c0,.07-.01.11-.04.13-.03.03-.2.05-.38.05-.21,0-.24-.02-.24-.12v-.02c.01-.18.02-.41.02-.56v-.03Z"/>
        <path class="cls-1" d="M48.07,23.7c-.2,1.29-.71,2.24-1.53,2.84-.23.17-.41.27-.48.27-.04,0-.07-.02-.12-.07-.15-.17-.3-.3-.5-.41.7-.32,1.16-.74,1.48-1.33.21-.38.34-.79.4-1.3-.13,0-.22,0-.29,0-.54,0-.81.01-1.06.06-.06,0-.09.01-.1.01-.07,0-.11-.03-.13-.1-.02-.09-.07-.53-.08-.68.47.05.77.07,1.5.07h.21c.01-.24.02-.39.02-.59,0-.24,0-.36-.03-.51.71.03.89.07.89.18t-.04.11c-.04.11-.07.25-.09.54,0,.1-.01.16-.02.27h.91q.27-.01.32-.02s.04-.01.2-.08c.02,0,.05-.01.08-.01.1,0,.18.05.35.22.16.17.23.26.23.34,0,.06,0,.07-.08.23-.02.04-.04.19-.05.31-.06,1.09-.18,1.9-.33,2.22-.1.22-.24.35-.48.43-.16.06-.32.08-.62.08-.4,0-.46-.02-.48-.16-.03-.2-.08-.34-.2-.59.26.05.41.06.61.06.35,0,.46-.05.54-.26.14-.38.25-1.28.26-2.16h-1.34Z"/>
        <path class="cls-1" d="M53.18,24.31c-.18.15-.28.21-.33.21s-.05,0-.17-.12c-.11-.11-.26-.22-.43-.31.65-.4,1.04-.75,1.42-1.28.26-.36.45-.71.54-1.05.65.24.8.32.8.4,0,.03-.02.05-.08.1-.06.04-.14.15-.31.4h.11c.21,0,.37,0,.4,0,.59,0,.74-.01.93-.09.05-.02.07-.02.1-.02.09,0,.17.07.36.29.15.17.2.24.2.31,0,.05-.02.09-.09.15-.05.05-.12.16-.21.34-.57,1.04-1,1.62-1.69,2.24-.54.49-1.4,1.07-1.59,1.07-.05,0-.1-.02-.15-.07-.18-.18-.34-.29-.51-.36.84-.41,1.49-.87,2.07-1.45t-.18-.18c-.13-.13-.27-.25-.58-.48-.04-.03-.05-.05-.05-.07,0-.03.08-.12.29-.34.1-.1.13-.12.16-.12.1,0,.46.29.82.66.37-.48.63-.93.77-1.32q-.7.01-1.59.02c-.28.37-.63.73-1.04,1.06Z"/>
        <path class="cls-1" d="M60.72,23.98c0-.14,0-.23,0-.45,0-.06,0-.22,0-.5-.44.09-1.2.21-1.35.21-.06,0-.1-.03-.13-.1-.04-.09-.13-.25-.19-.34,0,0-.05-.06-.15-.18.81,0,1.6-.13,2.36-.37.35-.11.56-.21.84-.38.27.24.49.52.49.62,0,.06-.04.08-.12.09-.12.01-.19.03-.34.08-.32.1-.37.12-.68.2,0,.24,0,.27,0,.6v.51c.91-.01,1.58-.03,1.78-.05.02,0,.04,0,.06,0,.08,0,.1.06.1.32,0,.39,0,.4-.1.4-.01,0-.21-.01-.27-.02-.26-.02-.62-.02-1.6-.02-.07.61-.25,1.12-.53,1.55-.18.27-.48.6-.71.78-.04.02-.06.04-.09.04q-.05,0-.26-.12c-.12-.08-.27-.14-.5-.22.45-.26.74-.54.98-.95.18-.3.32-.7.37-1.07-1.13.01-1.6.03-1.89.08-.07,0-.09.01-.11.01-.05,0-.08-.02-.09-.06-.04-.14-.07-.41-.09-.7.26.03.65.04,1.44.04h.78Z"/>
        <path class="cls-1" d="M66.79,25.35s.02.05.02.09c0,.04,0,.05-.06.18-.12.28-.27.72-.34,1.05-.02.07-.04.1-.06.12-.03.01-.24.04-.31.04h-.02s-.07,0-.12,0c-.08,0-.1-.02-.12-.09-.12-.4-.21-1.21-.21-1.83,0-.67.04-1.09.21-2,.06-.33.09-.51.12-.71.26.05.48.11.66.2.1.04.13.07.13.13,0,.04,0,.06-.07.16-.2.32-.43,1.62-.43,2.49,0,.14,0,.33.02.63.17-.38.23-.5.37-.8.05.13.09.19.2.35ZM68.11,25.78c.2.1.43.14.84.14s.62-.03,1-.14c.04-.01.07-.02.09-.02.04,0,.07.02.08.09.03.21.05.45.05.57,0,.06-.02.08-.1.1-.33.09-.66.13-1.07.13-.56,0-.91-.07-1.2-.24-.27-.16-.55-.5-.55-.66,0-.09.13-.2.46-.4.11.22.21.33.41.43ZM67.69,22.67c.13.03.52.05.82.05.4,0,.81-.03,1.18-.1t.05,0s.06.02.07.07c.01.06.03.33.03.49,0,.09-.02.12-.09.13-.25.05-.66.08-1.1.08-.52,0-.99-.03-1.06-.07-.03-.02-.04-.06-.04-.17,0-.16.02-.41.03-.46,0-.02.02-.04.06-.04,0,0,.02,0,.03,0Z"/>
      </g>
    </g>
  </g>
</svg>