<svg xmlns="http://www.w3.org/2000/svg" viewBox="0 0 55.05 57"><defs><style>.cls-1{fill:#e60012;}.cls-2{fill:#fff;}</style></defs><g id="レイヤー_2" data-name="レイヤー 2"><g id="レイヤー_1-2" data-name="レイヤー 1"><circle class="cls-1" cx="27.53" cy="27.53" r="27.53"/><path class="cls-2" d="M20.57,32.87H18.62l-2.17-4.18A37.08,37.08,0,0,1,14.9,25.3h-.05c.08,1.25.12,2.67.12,4.47v3.1H13.21V22.77h2.1l2.13,4.09A33.61,33.61,0,0,1,19,30.16h0c-.12-1.29-.17-2.72-.17-4.36v-3h1.76Z"/><path class="cls-2" d="M29.51,32.87H23.86V22.77H29.3v1.62H25.8v2.45h3.3v1.59H25.8v2.81h3.71Z"/><path class="cls-2" d="M43.27,22.77l-2.39,10.1H38.82L38,28.59c-.22-1.06-.38-2.08-.51-3.22h0c-.18,1.14-.36,2.15-.61,3.22l-1,4.28h-2l-2.22-10.1h2.06l.77,4.36c.21,1.21.41,2.45.56,3.53h0c.15-1.13.4-2.3.66-3.56l.92-4.33h1.92l.85,4.38c.23,1.19.42,2.3.56,3.48h0c.16-1.19.36-2.33.57-3.54l.83-4.32Z"/><path class="cls-1" d="M10.07,42.92C9.41,50.58,1.69,57,1.69,57c14.42-1.32,17.67-7,17.67-7"/></g></g></svg>