<svg xmlns="http://www.w3.org/2000/svg" viewBox="0 0 190.81 37.79"><defs><style>.cls-1{fill:#31425b;}</style></defs><g id="レイヤー_2" data-name="レイヤー 2"><g id="レイヤー_1-2" data-name="レイヤー 1"><path class="cls-1" d="M122.2,36.24a1,1,0,0,1-1,.78H103.85a.79.79,0,0,1-.79-.79V1.78a.78.78,0,0,1,.79-.78h5.82a.78.78,0,0,1,.79.78V30.63a.39.39,0,0,0,.39.4h12a.37.37,0,0,1,.36.42Z"/><path class="cls-1" d="M46.16.62c9.55,0,15.45,7,15.45,18.26,0,8.11-2.83,14.16-8,17.06a13.76,13.76,0,0,1-7.19,1.65c-5.43,0-9-1.5-11.69-5.07a21.26,21.26,0,0,1-4.14-13.33c0-7.76,3-14,8.11-16.81A16.1,16.1,0,0,1,46.16.62m-.11,5.5a6.18,6.18,0,0,0-5.58,3.19c-1.24,2.33-1.82,5.5-1.82,9.88,0,6.24,1.09,10.09,3.21,11.69a7.16,7.16,0,0,0,4.3,1.27c5,0,7.13-3.86,7.13-13.08a29.11,29.11,0,0,0-.93-8.36,6.53,6.53,0,0,0-6.31-4.59"/><path class="cls-1" d="M69.85,1.78a.78.78,0,0,1,.8-.78h8.66c6.1,0,8,.61,10,1.74a10.12,10.12,0,0,1,5.17,9.32c0,4.75-2.27,8.68-6.2,10.54-1.66.77-3.21,1.19-7.19,1.19H77.48a.39.39,0,0,0-.39.39v12a.8.8,0,0,1-.79.8H70.65a.8.8,0,0,1-.8-.8Zm7.63,4.63a.39.39,0,0,0-.39.39V17.92a.39.39,0,0,0,.39.39h3.39c2.95,0,3.83-.78,4.8-2.28a6.76,6.76,0,0,0,.87-3.83c0-3.35-1.8-5.79-4.85-5.79Z"/><path class="cls-1" d="M129.9,1.78a.79.79,0,0,1,.8-.78h5.81a.78.78,0,0,1,.79.78V24.72c0,2.68.1,3.31.62,4.29.83,1.6,2.53,2.48,4.91,2.48,3.15,0,5.17-1.56,5.49-4.19a26.23,26.23,0,0,0,.09-3.21V1.78a.79.79,0,0,1,.8-.78H155a.79.79,0,0,1,.81.78V25.29c0,3.41,0,4.07-.57,5.63-.94,2.84-4.45,6.77-12.2,6.77-5.48,0-9.46-1.66-11.54-4.81-1.18-1.85-1.55-3.3-1.55-6.77Z"/><path class="cls-1" d="M189.58,3.21a.77.77,0,0,1,.17,1.08l-2.53,3.85a.79.79,0,0,1-1,.3,14.85,14.85,0,0,0-7.78-2.38c-3,0-5,1.7-5,4.13,0,1.87,1,2.79,4,3.62L181.71,15c5.9,1.6,9.1,5.37,9.1,10.71,0,7.28-5.9,12.08-14.84,12.08a25.92,25.92,0,0,1-11.56-2.86.88.88,0,0,1-.36-1.11l2-4.2a.72.72,0,0,1,1-.39,19.58,19.58,0,0,0,9.25,2.57c4.13,0,6.31-1.7,6.31-4.91,0-2.33-1.5-3.83-4.71-4.66l-4-1.08c-3.58-1-5.8-2.38-7.09-4.55a10.41,10.41,0,0,1-1.5-5.48C165.32,4.55,170.59,0,178.19,0a21.3,21.3,0,0,1,11.39,3.21"/><path class="cls-1" d="M24.68,2.69a.8.8,0,0,1,.15,1.13L22.45,7.41a.79.79,0,0,1-1.12.18,9.26,9.26,0,0,0-5-1.53,7.43,7.43,0,0,0-6.09,3.09c-1.41,2.08-2,5.07-2,9.26,0,4.91.42,7.64,1.49,9.62a7.51,7.51,0,0,0,6.94,4A9.27,9.27,0,0,0,22,30.3l.09-.06a.76.76,0,0,1,1.1.14l2.38,3.26a.8.8,0,0,1-.14,1.11,14.69,14.69,0,0,1-9.38,2.89c-5,0-8.79-1.61-11.73-5S0,25.08,0,19.81A23.14,23.14,0,0,1,2.42,8.63,15.46,15.46,0,0,1,16.18.31a15.49,15.49,0,0,1,8.5,2.38"/></g></g></svg>