<?xml version="1.0" encoding="UTF-8"?>
<svg id="_レイヤー_1" data-name="レイヤー_1" xmlns="http://www.w3.org/2000/svg" version="1.1" xmlns:xlink="http://www.w3.org/1999/xlink" viewBox="0 0 347.3 50.8">
  <!-- Generator: Adobe Illustrator 29.2.1, SVG Export Plug-In . SVG Version: 2.1.0 Build 116)  -->
  <defs>
    <style>
      .st0 {
        fill: #684723;
      }

      .st1 {
        filter: url(#outer-glow-1);
      }
    </style>
    <filter id="outer-glow-1" x="0" y="0" width="347.3" height="50.8" filterUnits="userSpaceOnUse">
      <feOffset dx="0" dy="0"/>
      <feGaussianBlur result="blur" stdDeviation="13"/>
      <feFlood flood-color="#000" flood-opacity=".5"/>
      <feComposite in2="blur" operator="in"/>
      <feComposite in="SourceGraphic"/>
    </filter>
  </defs>
  <g class="st1">
    <g>
      <g>
        <g>
          <path class="st0" d="M224.8,15.1c0,0,0,.1-.2.1h-2.4v.6c0,.7,0,1.5,0,2.5h0c0,.2-.2.4-.3.4s-.2,0-.2-.3h0c0-.2,0-.3,0-.4h-1.8v.4c0,.2-.2.4-.4.4s-.2,0-.2-.3h0c0-1,0-2.1,0-3.3h-1c-.2,0-.5,0-.9,0,0,.5,0,1.1,0,1.7,0,.9,0,1.8,0,3.1h4.8c0,0,.2,0,.2,0,.4-.6.5-.6.6-.6s0,0,0,0c.4.1.9.7.9.9s0,.1-.3.1h-6.4v.4s0,0,0,0c0,.3-.2.4-.4.4s-.3,0-.3-.3h0c0-1.7,0-3.8.1-5.5-.6,0-1.3,0-1.8,0h0c-.2,0-.5-.4-.5-.6h0c.6,0,1.5.1,2.3.1,0-.3,0-.6,0-.8,0-.5,0-1.4-.1-1.8,0,0,0,0,0,0s0,0,0,0c.1,0,1.1.2,1.1.4s0,.1-.2.2c-.3.2-.3,0-.3.6v1.5c.4,0,.7,0,.9,0h1v-1.3c0-.4,0-1.3-.1-1.7,0,0,0,0,0,0s0,0,0,0c0,0,1.1.1,1.1.4s0,.1-.2.2c-.3.2-.3,0-.3.6v2c0,0,1.8,0,1.8,0v-1.2c0-.4,0-1.3-.1-1.7,0,0,0,0,0,0s0,0,0,0,1.1.1,1.1.4,0,.1-.2.2c-.3.2-.3,0-.3.6v1.9c0,0,.8,0,.8,0,0,0,.2,0,.2,0,0,0,.4-.6.6-.6s0,0,0,0c.4.1.9.7.9.8ZM219.8,15.2v.6c0,.5,0,1.1,0,1.9h1.8c0-.8,0-1.7,0-2.5h-1.9Z"/>
          <path class="st0" d="M217.1,21.2c-.2,0-.4-.2-.4-.5,0-1.9,0-4.3.1-5.3-.6,0-1.2,0-1.6,0h0c-.3,0-.7-.5-.7-.7v-.2h.2c.5,0,1.3.1,2.1.2,0,0,0-.2,0-.3,0-.1,0-.3,0-.4,0-.5,0-1.4-.1-1.8,0,0,0,0,0-.1v-.2h.2s1.3,0,1.3.5-.2.3-.2.3c0,0-.1,0-.2,0,0,0,0,0,0,0,0,0,0,.3,0,.4v1.3s0,0,0,0c.3,0,.5,0,.7,0h.8v-1.1c0-.4,0-1.3-.1-1.7,0,0,0,0,0-.1v-.2h.2s1.3,0,1.3.5-.2.3-.2.3c0,0-.1,0-.2,0,0,0,0,0,0,0,0,0,0,.2,0,.4v1.8s1.5,0,1.5,0v-1c0-.4,0-1.3-.1-1.7h0c0-.2,0-.3.2-.3s1.3,0,1.3.5,0,.2-.3.3c0,0,0,0-.1,0,0,0,0,0,0,0,0,0,0,.2,0,.4v1.7s.7,0,.7,0c0,0,0,0,0,0,0,0,.4-.7.7-.7s0,0,.1,0c.3.1,1,.7,1,1s0,.3-.4.3h-2.2v.4c0,.8,0,1.6,0,2.5,0,.3-.3.5-.5.5s-.4-.1-.4-.5,0-.2,0-.2c0,0,0,0,0,0h-1.5v.3c0,.3-.3.5-.5.5s-.4-.1-.4-.5c0-.9,0-2,0-3.1h-.9c-.2,0-.5,0-.8,0,0,.5,0,1,0,1.6,0,.8,0,1.7,0,2.9h4.7s0,0,0,0c.4-.7.6-.7.7-.7s0,0,.1,0c.3.1,1,.7,1,1s0,.3-.4.3h-6.2v.2c0,.4-.3.5-.5.5ZM217.1,15.1v.2c0,1,0,3.4-.1,5.5,0,.2,0,.2.1.2,0,0,.2,0,.2-.2v-.7c0-1.2,0-2.2,0-3.1s0-1.2,0-1.7h0c0-.1,0-.1,0-.1v-1.6c0-.5,0-.6.3-.7,0,0,0,0,.1,0,0,0,0,0,0,0-.1,0-.5-.2-.7-.2,0,.6,0,1.6,0,1.7s0,.2,0,.4c0,.1,0,.3,0,.4v.2h0ZM222.5,20.1h1.3s0,0,0,0c0-.2-.5-.6-.8-.7,0,0-.1,0-.5.6,0,0,0,0-.1.1ZM219.5,15.1h0v.2c0,1.1,0,2.3,0,3.2,0,0,0,.1,0,.1,0,0,.2,0,.2-.2v-.7c0-.8,0-1.3,0-1.9v-2.9c0-.4,0-.5.3-.7,0,0,0,0,.1,0,0,0,0,0,0,0-.1,0-.5-.2-.7-.2,0,.4,0,1.2,0,1.6v1.4ZM221.8,17.9h0c0,.2,0,.3,0,.3,0,0,0,.1,0,.2,0,.2,0,.2,0,.2,0,0,.2,0,.2-.2,0-.9,0-1.7,0-2.5v-2.8c0-.5,0-.6.3-.7,0,0,0,0,.1,0,0,0,0,0,0,0-.1,0-.5-.1-.7-.2,0,.4,0,1.2,0,1.6v1.5c0,.8,0,1.7,0,2.5v.2ZM220,17.6h1.5c0-.7,0-1.4,0-2.2h-1.6v.5c0,.5,0,1,0,1.7ZM214.9,15c0,.1.2.2.2.2.5,0,1.1,0,1.7,0h.2s0,0,0,0c-.7,0-1.5,0-2.1-.1ZM223.2,15.1h1.3s0,0,0,0c0-.2-.5-.6-.8-.7-.1,0-.4.4-.5.5,0,0,0,.1-.1.1Z"/>
        </g>
        <g>
          <path class="st0" d="M240.3,13c0,.1-.2.2-.3.3-.2,0-.2,0-.2.4,0,.2,0,.8,0,1.4,0,1.6,0,4.1,0,5.3h0c0,.3-.2.4-.4.4s-.3,0-.3-.3h0s0-.6,0-.6h-6.2c0,.2,0,.3,0,.5s-.2.4-.4.4-.2,0-.2-.3h0c0-1.2,0-2.5,0-3.8s0-1.7,0-2.6c0-.3,0-1.3-.2-1.8,0,0,0,0,0,0s0,0,0,0c0,0,.6.2,1,.5h0s5.5,0,5.5,0c0,0,.1,0,.2,0,0,0,.3-.3.4-.3s.9.5.9.7ZM235.7,14.6c0-1.3,0-1.5,0-1.6h-2.5c-.2.2-.2.3-.2.6v2.4h2.8v-1.5ZM233,16.3v3.3h2.8c0-.5,0-2,0-3.3h-2.8ZM239.1,13.2c0,0,0-.1-.1-.1h-2.5s0,0,0,0c0,0,0,.1-.2.2,0,0,0,0,0,.2v2.6h2.9c0-1.2,0-2.2,0-2.9ZM236.3,16.3v3.3h2.8c0-1.1,0-2.3,0-3.3h-2.9Z"/>
          <path class="st0" d="M232.6,21.1c-.2,0-.4-.1-.4-.5h0c0-1.1,0-2.3,0-3.8s0-1.7,0-2.6c0-.3,0-1.3-.1-1.8,0,0,0,0,0-.1v-.2h.2s0,0,0,0c0,0,.7.2,1.1.5h5.5s0,0,0,0c0,0,.3-.4.5-.4s1,.5,1,.8-.2.4-.4.5h0s0,0,0,0c0,0,0,0,0,.2,0,.2,0,.7,0,1.4,0,1.5,0,3.8,0,5.3,0,.4-.3.6-.6.6s-.4-.1-.4-.4v-.4s-5.8,0-5.8,0h0c0,.2,0,.3,0,.4,0,.3-.3.6-.6.6ZM232.4,12.4c0,.5.1,1.5.1,1.7,0,.9,0,1.8,0,2.6,0,1.5,0,2.7,0,3.8,0,.2,0,.2,0,.2,0,0,.2,0,.2-.2s0-.2,0-.3c0,0,0-.2,0-.3v-6.3c0-.4,0-.5.3-.7h.1c0,0,0-.1,0-.1-.2-.2-.6-.3-.8-.4ZM239.3,19.8h0v.7c0,.1,0,.1,0,.1,0,0,.2,0,.2-.3,0-1.5,0-3.9,0-5.3s0-1.2,0-1.4c0-.3,0-.4.3-.5.2-.1.3-.2.3-.2,0-.1-.6-.5-.7-.5,0,0-.2.2-.3.3,0,0-.1.1-.2.1h.1c.2,0,.3.2.3.3,0,.6,0,1.5,0,2.9v.3c0,.7,0,1.5,0,2.2v1.2ZM235.9,19.8h.2v-6.4c0,0,0-.3.2-.3,0,0,0,0,0,0v-.2h-.5,0c0,.2,0,.3,0,1.7v1.8c0,.8,0,1.7,0,2.4,0,.4,0,.7,0,.9h0ZM236.4,19.5h2.5v-.9c0-.7,0-1.4,0-2.1h-2.6v3ZM233.1,19.5h2.4c0-.2,0-.4,0-.8,0-.6,0-1.5,0-2.3h-2.5v3ZM236.4,15.9h2.6c0-1.3,0-2.2,0-2.7h-2.3c0,0-.1.1-.2.2,0,0,0,0,0,0v2.5ZM233.1,15.9h2.5v-1.3c0-.9,0-1.2,0-1.4h-2.3q-.2.1-.2.5v2.2Z"/>
        </g>
        <g>
          <path class="st0" d="M257.7,17.4c0,0-.7.3-1,.5,0,0,0,0-.1,0-.4,0-2.6-1.2-4.2-3.3h0c-.7.9-1.4,1.6-2.2,2.2.1,0,.5.2.7.3h0s2.9,0,2.9,0c0,0,.1,0,.2,0,.1-.1.2-.2.3-.2.1,0,.8.6.8.8s0,.1-.2.2q-.2.1-.2.9c0,.6,0,1.3,0,1.8h0c0,.2-.2.3-.3.3s-.2,0-.2-.3v-.3h-3.5v.5c0,.2-.2.3-.3.3s-.2,0-.2-.2h0c0-1,0-2.1,0-2.6s0-.8,0-1.2c-1.4,1.1-2.5,1.3-2.7,1.3s0,0,0,0c0,0,0,0,.2,0,1.4-.6,3-1.8,4.4-3.8.1-.2.2-.5.3-.6,0,0,0,0,0,0s0,0,0,0c0,0,.6.3.7.5,0,0,0,0,0,0,0,0,0,.2-.3.2s-.1,0-.1,0c.7,1,3.4,2.8,5.1,2.8,0,0,.1,0,.1,0ZM251.4,12.5c0,0,0,.2-.2.2h0s0,0,0,0c0,0-.1,0-.2.2-1.5,1.5-2.7,1.9-2.9,1.9s0,0,0,0c0,0,0,0,.2-.1.8-.4,2.5-2,2.6-2.6,0,0,0,0,0,0s.8.5.8.7ZM254.1,18.6c0-1,0-1-.1-1h-3.2c-.3.2-.2.1-.2.5,0,.2,0,.5,0,.9s0,.7,0,1.1h3.5c0-.5,0-1,0-1.5ZM256,13.8c0,.2-.1.4-.3.4s-.3-.1-.4-.4c-.3-.6-1.2-1.3-1.9-1.8,0,0,0,0,0,0,0,0,0,0,0,0,.1,0,2.6.9,2.6,1.9Z"/>
          <path class="st0" d="M250.2,21.2c-.2,0-.4-.2-.4-.4h0c0-1,0-2.1,0-2.6s0-.6,0-.9c-1.4,1-2.4,1.2-2.6,1.2s-.2-.2-.2-.2c0-.1.1-.2.2-.2,1.7-.8,3.1-2,4.3-3.7.1-.2.2-.5.3-.6,0-.1,0-.2.2-.2h.1c0,0,0,0,0,.1.3.2.6.4.7.5,0,0,0,.1,0,.2,0,0,0,.3-.3.3.9,1,3.2,2.5,4.8,2.6.2,0,.3.1.3.2,0,.1-.1.2-.4.3-.2,0-.5.2-.7.4,0,0-.2.1-.2.1-.2,0-.8-.3-1.6-.8.1.1.2.2.2.3,0,.2-.2.3-.3.3q-.2,0-.2.7c0,.5,0,1.1,0,1.7h0c0,.5-.3.6-.5.6s-.4-.1-.4-.4v-.2h-3.2v.3c0,.3-.3.4-.5.4ZM250.2,17.1c0,.5,0,1.1,0,1.1,0,.5,0,1.6,0,2.6,0,0,0,0,0,0,0,0,.2,0,.2-.1v-.7c0-.2,0-.4,0-.6,0-.2,0-.4,0-.5s0-.4,0-.5c0-.1,0-.2,0-.3h0c0-.4,0-.5.2-.6h.1c0,0,0-.1,0-.1-.1,0-.4-.2-.5-.3ZM254.2,20.1h0v.5s0,0,0,0,.2,0,.2-.1v-.2c0-.6,0-1.2,0-1.7,0-.8,0-.9.3-1s0,0,0,0c-.1-.1-.5-.5-.6-.6,0,0,0,0-.2.2,0,0,0,0-.1,0h0c.3,0,.3.1.3,1.2s0,.9,0,1.5h0ZM250.7,19.9h3.2c0-.5,0-.9,0-1.3s0-.8,0-.9h-3s0,0,0,0c0,0,0,0,0,0,0,0,0,0,0,.1h0c0,.2,0,.3,0,.4,0,.2,0,.3,0,.5s0,.3,0,.5c0,.1,0,.3,0,.4ZM253.4,15.6c1.4,1.5,3,2.2,3.2,2.2.2-.2.4-.3.6-.4-1.2-.2-2.7-1.1-3.8-1.9ZM252.2,13.9c0,.2-.2.4-.3.5-.8,1.2-1.8,2.2-2.9,2.9.3-.2.5-.3.9-.6h.2c.7-.7,1.4-1.4,2.1-2.2h0c0-.1,0-.2,0-.2h.3c.1,0,.2,0,.3,0-.1-.1-.4-.3-.5-.4ZM250.9,17.1h2.8s0,0,0,0c.2-.2.3-.3.4-.3-.6-.5-1.3-1.1-1.8-1.9-.6.7-1.2,1.4-1.9,1.9.2,0,.3.2.5.2h0ZM252.8,14.4s0,0,0,0c0,0,0,0,0,0ZM252.3,13.7h0s0,0,0,0ZM247.9,14.9c-.1,0-.2,0-.2-.2s.1-.2.2-.3c.8-.4,2.4-2,2.5-2.5,0-.2.1-.2.2-.2.1,0,1,.6,1,.8s-.1.3-.4.3h0s0,0,0,0c0,0,0,0,0,0h0c-1.5,1.5-2.7,2-3,2ZM250.7,12.1c-.2.5-.9,1.3-1.7,1.9.4-.3,1-.7,1.6-1.3h0c0-.1.2-.2.3-.2h.2s0,0,0,0c0-.1-.3-.3-.5-.4ZM255.7,14.4c-.1,0-.4,0-.6-.4-.3-.5-1.1-1.2-1.9-1.8,0,0,0,0,0-.2h0c0,0,0-.2,0-.2h0c.1,0,2.8.9,2.8,2s-.2.6-.5.6ZM254.2,12.4c.5.5,1,.9,1.3,1.3,0,.2.2.3.3.3s.1,0,.1-.2c0-.5-1-1.1-1.7-1.4Z"/>
        </g>
        <g>
          <path class="st0" d="M266.7,17c0,0,0,.1-.3.1s-.1,0-.3.2c-1,1.3-2.6,2.2-2.7,2.2s0,0,0,0,0,0,.1-.2c.8-.6,2.2-2.1,2.3-2.8,0-.1,0-.1,0-.1,0,0,.8.4.8.6ZM273.3,15.2c0,0,0,.1-.2.1h-3.2.1c0,0,.1,0,.1.1s0,0,0,0c-.2.1-.2,0-.2.5,0,.5,0,1.2,0,1.8s0,1,0,1.4c0,.1,0,.5,0,.7,0,.9-1.1,1.1-1.1,1.1s-.1,0-.2-.1c-.1-.1-1.2-.6-1.2-.7s0,0,0,0,0,0,.2,0c.5,0,.8.1,1.1.1.4,0,.7-.1.7-.4,0-.5,0-1.1,0-1.7,0-1.9,0-2.6,0-2.8h-1.2c0,0,.3,0,.3.1s0,.1-.1.1c-.2,0-.2,0-.2.6,0,4.7-4,4.9-4,4.9,0,0,0,0,0,0,0,0,.1,0,.3-.2,2.9-1,3.3-3.1,3.3-5s0-.5,0-.7h-.1c-.6,0-1.8,0-2.8.1h0c-.2,0-.6-.4-.6-.6,1.1.1,2.8.2,3.4.2h1c0-.1,0-.3,0-.5,0-.3,0-.7,0-.9h-.2c-.6,0-1.6,0-2.6.1h0c-.2,0-.6-.4-.6-.6,1.1.1,2.6.2,3.2.2h.1v-.4c0-.5,0-1-.1-1.3,0,0,0,0,0,0s0,0,0,0c0,0,1.1.1,1.1.4s0,.2-.1.2c-.3.2-.4.2-.4.7v.6h1.6c0,0,.1,0,.2,0,.1-.2.5-.6.6-.6s0,0,0,0c.4.1.9.7.9.8s0,.1-.2.1h-3.1c0,.5,0,1.1,0,1.4h2.7c0,0,.2,0,.2,0,.1-.2.5-.6.5-.6s.1,0,.1,0c.4.1.9.6.9.8ZM273.2,18.6c0,.2-.1.3-.3.3s-.3,0-.4-.4c-.4-.6-1.3-1.4-2.1-1.9,0,0,0,0,0,0s0,0,0,0c0,0,2.8.9,2.8,2Z"/>
          <path class="st0" d="M264,21.3c-.2,0-.2-.1-.2-.2,0-.1,0-.2.4-.3,2.8-1,3.1-3,3.1-4.8s0-.4,0-.5c-.3,0-1.7,0-2.8.1h0c-.3,0-.8-.5-.8-.7v-.2h.2c1.1.2,2.8.2,3.4.2h.8c0-.1,0-.2,0-.3,0-.2,0-.4,0-.6,0,0,0-.2,0-.2h0c-.4,0-1.5,0-2.6.1h0c-.3,0-.7-.5-.7-.7v-.2h.2c1.1.1,2.5.2,3.2.2v-.3c0-.4,0-.9-.1-1.3,0,0,0,0,0-.1v-.2h.2s1.3,0,1.3.5-.1.3-.2.3h-.1q-.2.2-.2.5v.5h1.4s0,0,0,0c0,0,.5-.7.7-.7s0,0,.1,0c.4.1,1,.7,1,1s0,.3-.4.3h-2.9c0,.4,0,.8,0,1.1h2.5s0,0,0,0c0,0,.5-.7.7-.7s.1,0,.2,0c.3.1,1,.6,1,.9s0,.3-.4.3h-2.8c0,0,0,.2-.2.2h0s0,0,0,0c0,0,0,0,0,.1h0c0,.6,0,1.3,0,1.9s0,1,0,1.4c0,0,0,.2,0,.3,0,.1,0,.3,0,.4,0,1-1.1,1.3-1.3,1.3s-.2-.1-.3-.2h0c0,0-.4-.2-.6-.3-.6-.3-.7-.3-.7-.5s0-.2.2-.2,0,0,.1,0h0c.5,0,.8.1,1.1.1.5,0,.5-.1.5-.3,0-.5,0-1.1,0-1.7,0-1.5,0-2.3,0-2.6h-.6c0,.1-.1.2-.2.3h0s0,0,0,0c0,0,0,.1,0,.4,0,4.8-4.1,5.1-4.2,5.1h0ZM268.1,20.5c.3.2.5.2.5.3h0c0,0,0,0,0,0,0,0,.9-.1,1-.9,0,0,0-.2,0-.4,0-.1,0-.2,0-.3,0-.4,0-.9,0-1.4s0-1.3,0-1.8h0c0-.4,0-.5.2-.5h-.4c0,.2,0,1,0,2.6s0,1.2,0,1.7c0,.6-.6.6-.8.6s-.3,0-.5,0ZM267.6,15.4c0,.1,0,.4,0,.6,0,1.7-.3,3.4-2.2,4.6,1.1-.5,2.4-1.7,2.4-4.4,0-.5,0-.6.2-.7,0,0,0,0,0,0h-.4ZM264.3,15.1c0,.1.2.2.3.2.5,0,1.1,0,1.6,0-.6,0-1.3,0-1.9-.1ZM271.8,15.2h1.3s0,0,0,0c-.1-.2-.5-.5-.8-.6h0s0,0,0,0c0,0-.3.3-.4.5,0,0,0,0-.1.1ZM268.5,15.2h.2,0c0-.4,0-1,0-1.5v-.9c0-.5,0-.6.4-.7h0c0,0,0-.1,0-.1,0,0-.5-.2-.8-.2,0,.4,0,.9,0,1.3v.7c0,.1,0,.2,0,.4,0,.2,0,.4,0,.6s0,.4,0,.5h0ZM265.3,13.4c0,.1.2.2.3.2.5,0,1,0,1.4,0-.5,0-1.1,0-1.7-.1ZM270.7,13.5h1.3s0,0,0,0c-.1-.2-.5-.5-.8-.6,0,0-.3.3-.4.5,0,0,0,0-.1.1ZM263.5,19.6h-.2v-.2c0,0,0-.1.2-.3.8-.6,2.2-2.1,2.2-2.7,0-.2.2-.3.2-.3.1,0,1,.4,1,.7s0,.3-.4.3,0,0,0,0c0,0,0,0,0,0-1,1.3-2.6,2.3-2.8,2.3ZM266,16.6c-.1.5-.7,1.3-1.3,1.9.5-.4,1-.8,1.4-1.4.1-.2.2-.2.4-.2s0,0,0,0c-.1,0-.3-.2-.5-.3ZM273,19.1c-.2,0-.4-.2-.6-.4-.4-.7-1.6-1.6-2-1.9,0,0,0,0,0-.2v-.2h.2c.1,0,2.9.9,2.9,2.1s-.2.5-.4.5ZM271.3,17.1c.5.4,1.1.9,1.4,1.4.2.3.3.3.3.3,0,0,.1,0,.1-.2,0-.6-1-1.2-1.8-1.5ZM270.5,16.5s0,0,0,0c0,0,0,0,0,0Z"/>
        </g>
        <g>
          <path class="st0" d="M280.7,18.8c0,0-.1.1-.2.1-.1,0-.6-.6-.6-.7s0,0,0,0c.4,0,.6,0,1.7-.4,0-.7,0-2.1,0-3.3-.4,0-.8,0-1.1.1h0c-.2,0-.5-.4-.5-.5h0c.8,0,1.2.1,1.7.2v-.9c0-.4,0-1.1-.1-1.7h0c0,0,0,0,0,0,0,0,1.1.2,1.1.4s-.1.2-.3.2c-.2,0-.2.2-.2,1.9h.3c0,0,0,0,.1,0,.3-.5.4-.5.4-.5s0,0,0,0c.4.2.7.7.7.7s0,.1-.2.1h-1.5c0,1.1,0,2.4,0,3.1.5-.2,1.1-.5,1.4-.7,0,0,0,0,0,0s0,0,0,0c0,.2-2.1,1.4-3.1,1.8ZM285.9,19.1c0-1.7,0-2.5,0-2.9-.5,0-1.6,0-2.4,0h0c-.2,0-.5-.4-.5-.5,1,.1,2.4.1,3,.1h2.4s0,0,.1,0c0,0,.3-.5.5-.5s.8.6.8.8,0,.1-.2.1h-3c.2,0,.2.1.2.2s0,.1-.2.2c-.2,0-.2.1-.2.5s0,.5,0,.8h1.1c0,0,0,0,.1,0,.1-.2.4-.5.5-.5.2,0,.9.5.9.8s0,.1-.2.1h-2.3c0,.6,0,1.3,0,1.9.5.2,1.2.2,1.4.2.7,0,1.5-.1,2.3-.3,0,0,.1,0,.1,0s0,0,0,0c0,0-.7.5-.9.8,0,0,0,.1-.1.1,0,0-.5,0-.9,0-1.6,0-3.1-.2-3.8-2.7-.5,1.6-1.3,2.4-2.6,2.9-.1,0-.2,0-.3,0s0,0,0,0c0,0,0,0,.2-.2,2.1-1.1,2.4-3.7,2.4-4.1h0c0-.1,0-.1,0-.1,0,0,0,0,.1,0,.1,0,.4,0,.7.2,0,0,0,0,0,.1,0,0,0,.1-.2.2,0,0,0,0-.1,0,0,0,0,0-.1.3v.3c.1.8.6,1.5,1.3,1.9v-.7ZM285,15.2c0,.2-.2.3-.3.3s-.2,0-.2-.2h0c0-.7,0-1.2,0-1.6s0-1.4-.1-2c0,0,0,0,0,0,0,0,0,0,0,0,.1,0,.6.3.8.4h0c0,0,1.9,0,1.9,0,0,0,.1,0,.2,0,0,0,.1-.2.2-.2,0,0,0,0,0,0,.1,0,.8.3.8.6s-.2.2-.2.2c-.2,0-.2.1-.2.7s0,1.2,0,1.8h0c0,.2-.2.3-.3.3s-.2,0-.2-.2v-.2h-2.4v.3ZM285,14.6h2.4c0-.4,0-.8,0-1.1h-2.4c0,.3,0,.7,0,1.1ZM285,12.9v.4h2.4c0-.9,0-.9-.2-.9h-2.1c-.2.2-.2,0-.2.6Z"/>
          <path class="st0" d="M281.6,21.3c-.2,0-.2-.2-.2-.2,0-.1.1-.2.3-.3,2-1,2.4-3.4,2.4-4v-.3h.2c0,0,.1,0,.2,0,0,0,0,0,.1,0,.2,0,.4,0,.6.2,0,0,.2.1.2.2s0,.2-.3.3c0,0,0,0,0,0,0,0,0,0,0,.1v.4c.1.7.5,1.2,1,1.6v-.4c0-1.5,0-2.3,0-2.7-.6,0-1.5,0-2.3,0h0c-.3,0-.7-.5-.7-.7v-.2h.2c1.1.2,2.8.2,2.9.2h2.4c.2-.3.4-.6.6-.6s1,.7,1,1,0,.3-.4.3h-2.6s0,0,0,0c0,.1,0,.3-.2.3q-.1,0-.1.3c0,0,0,.2,0,.3,0,.1,0,.2,0,.3h.9s0,0,0,0c0,0,.4-.6.6-.6s1,.6,1,.9-.1.3-.4.3h-2.2c0,.5,0,1.1,0,1.6.5.1,1,.1,1.2.1.7,0,1.5-.1,2.2-.3,0,0,.1,0,.2,0h.2v.2c0,.1,0,.2-.3.3-.2.2-.5.4-.6.6h0c0,0,0,.2-.2.2,0,0-.5,0-1,0-1.4,0-3-.2-3.8-2.3-.5,1.3-1.3,2.1-2.5,2.6-.1,0-.3,0-.3,0ZM285.1,19.3c.8,1.2,1.9,1.3,3.1,1.3s.8,0,.9,0h0c0-.2.2-.4.4-.5-.6.1-1.2.2-1.8.2s-.9,0-1.4-.2h-.1v-.2c0-.6,0-1.3,0-1.9h0c0-.1,0-.1,0-.1v-.2c0-.2,0-.3,0-.5,0-.1,0-.2,0-.3,0-.4,0-.5.3-.6,0,0,0,0,0,0,0,0,0,0-.1,0h-.4c0,.3,0,1.1,0,2.7v1h-.2c-.3-.3-.5-.5-.7-.7ZM289.1,20.6s0,0,0,0c0,0,0,0,0,0ZM284.3,16.9c0,.3-.2,1.9-1.2,3.1.5-.5.8-1.1,1.1-1.9l.2-.6c0-.1,0-.2.1-.3,0,0,0,0,.1,0,0,0,0,0,0,0,0,0,0,0,0,0-.1,0-.3-.1-.4-.1,0,0,0,0,0,0ZM287.7,17.9h1.1s0,0,0,0c0-.1-.5-.5-.7-.6,0,0-.3.3-.4.4,0,0,0,0-.1.1ZM284.9,17h0s0,0,0,0h0ZM283.3,15.9c0,0,.1.1.2.1.3,0,.7,0,1.1,0-.4,0-.9,0-1.3,0ZM288.5,16h1.1s0,0,0,0c-.1-.2-.5-.6-.6-.6,0,0-.2.2-.4.5,0,0,0,0-.1.1ZM280.6,19.1c-.2,0-.7-.7-.7-.8v-.2h.2c.3,0,.5,0,1.5-.4,0-.6,0-1.9,0-3-.2,0-.5,0-.7,0h-.3s0,0,0,0c-.3,0-.7-.5-.7-.7v-.2h.2s.4,0,.4,0c.5,0,.8,0,1.1.1v-.8c0-.4,0-1-.1-1.6h0c0-.2.1-.3.2-.3s1.3.2,1.3.6-.1.3-.4.4c0,0-.1.3-.1,1.6h.1s0,0,0,0c.3-.5.4-.5.5-.5s0,0,0,0h0c.5.2.8.7.8.9s-.1.3-.4.3h-1.3c0,.6,0,1.2,0,1.8,0,.3,0,.6,0,.9.4-.2.8-.4,1.2-.6,0,0,.1,0,.2,0,.1,0,.2,0,.2.2,0,.4-3,1.9-3.2,2h0s0,0,0,0c0,0,0,.1-.2.1ZM280.3,18.4c0,.1.2.2.3.3,0,0,0,0,.1,0,.5-.2,1.1-.6,1.7-.9,0,0,0,0,0,0h-.2c0,0,0-.1,0-.1,0-.3,0-.7,0-1.1,0-.6,0-1.3,0-1.9v-.3c0-1.8,0-2,.3-2.1,0,0,.1,0,.1,0-.1,0-.5-.2-.8-.3,0,.6,0,1.1.1,1.5h0v1.2c0,1.1,0,2.6,0,3.3h0c0,.1,0,.1,0,.1-.8.3-1.2.4-1.5.5ZM280.4,14.3c0,0,.2.2.2.2h.2c.1,0,.3,0,.4,0-.2,0-.5,0-.8,0h0ZM282.7,14.3h1s0,0,0,0c0-.1-.3-.4-.6-.6h0s-.1.1-.3.4h0c0,0,0,.1,0,.2ZM283.8,14.3h0ZM284.7,15.6c-.2,0-.4-.2-.4-.4h0c0-.8,0-1.3,0-1.6,0-.9,0-1.6-.1-1.9h.1c0,0-.2,0-.2,0h0c0-.2,0-.3.2-.3.2,0,.8.3.9.4h0s1.8,0,1.8,0h0c0-.1.1-.2.2-.3,0,0,.1,0,.2,0,.2,0,.9.4.9.7s-.1.3-.3.4c0,0-.1,0-.1.5s0,.9,0,1.5v.4c0,.3-.2.5-.5.5s-.4-.2-.4-.4h0s-2.1,0-2.1,0v.2c0,.3-.3.4-.5.4ZM284.6,11.8c0,.5,0,1.4,0,1.9s0,.9,0,1.6c0,0,0,0,0,0s.2,0,.2-.1v-.8c0-.3,0-.6,0-.9v-.6c0-.4,0-.5.2-.6h.1c0-.1,0-.2,0-.2-.1,0-.3-.2-.5-.3ZM287.6,14.7v.4c0,0,0,0,0,0s.2,0,.2-.1v-.4c0-.6,0-1.1,0-1.5,0-.6,0-.7.3-.8.1,0,.1-.1.1-.1,0-.1-.4-.4-.6-.4,0,0,0,.1-.1.1h0c0,0,0,.1-.1.2.3,0,.3.2.3,1.1v.3c0,.2,0,.3,0,.5,0,.2,0,.4,0,.6h0ZM285.2,14.4h2.1c0-.2,0-.3,0-.4,0-.1,0-.2,0-.3h-2.1c0,.2,0,.5,0,.7h0ZM285.2,13.1h2.1c0-.3,0-.5,0-.6h-2s0,0,0,0c0,0,0,0,0,0,0,0,0,.2,0,.3v.2ZM287.6,11.8s0,0,0,0c0,0,0,0,0,0Z"/>
        </g>
      </g>
      <g>
        <g>
          <path class="st0" d="M221,32.8c0,.1-.2.2-.3.3,0,0-.1.2-.1.2-.2.7-.5,1.9-.6,2.5.4,0,.8.2.8.4s0,.2-.3.2,0,0-.1,0c-.3,0-.6,0-1,0-.9,0-2,.1-2.8.3-.2,0-.4.1-.7.1-.6,0-1.2-.6-1.2-.7s0,0,0,0c0,0,.2,0,.3.1.1,0,.4,0,.6,0s.5,0,.7,0c1.1-.1,2.2-.2,3.3-.3.2-.8.4-2.7.4-2.8,0-.2,0-.3-.2-.3-.7,0-2.2.2-3.3.5-.2,0-.4,0-.5,0-.3,0-1.1-.3-1.1-.7s0,0,0,0,.1,0,.2,0c0,0,.3,0,.5,0,.3,0,.6,0,.8,0,1.4-.1,1.6-.2,3-.3.4,0,.4-.2.7-.2s1.1.4,1.1.6Z"/>
          <path class="st0" d="M215.9,37c-.7,0-1.4-.6-1.4-.9s.1-.2.2-.2.2,0,.3.1h0c0,0,.2.1.5.1s.4,0,.5,0h.1c1-.1,2.1-.2,3.1-.3.2-.9.4-2.5.4-2.6,0-.1,0-.1,0-.1-.7,0-2.1.2-3.2.5-.2,0-.4.1-.6.1-.4,0-1.3-.4-1.3-.9s0-.2.2-.2.1,0,.2,0h0s.1,0,.4,0,.5,0,.7,0c.7,0,1.1-.1,1.5-.2.4,0,.8-.1,1.5-.2.2,0,.3,0,.4-.1,0,0,.2-.1.3-.1.2,0,1.2.4,1.2.7s-.2.4-.4.5c0,0,0,0,0,.1-.1.5-.3,1.2-.4,1.8,0,.2,0,.4-.1.6.4,0,.8.3.8.6s-.1.3-.4.3,0,0-.2,0c-.3,0-.6,0-1,0-.9,0-2,.1-2.8.3-.2,0-.5.1-.7.1ZM215,36.3c.2.2.5.4.9.4s.4,0,.6-.1c.8-.2,2-.3,2.9-.3s.7,0,1,0c.1,0,.2,0,.2,0,0,0-.3-.3-.7-.3h-.2s0-.2,0-.2c0-.2.1-.5.2-.8.1-.6.3-1.3.4-1.8,0-.1,0-.3.2-.3.2,0,.2-.1.2-.2,0-.1-.7-.4-.9-.4s0,0-.2,0c-.1,0-.2.1-.5.2-.7,0-1.1.1-1.5.2-.4,0-.8.1-1.5.2-.2,0-.5,0-.8,0s-.4,0-.4,0c.2.2.6.4.8.4s.3,0,.5,0c1.2-.3,2.6-.5,3.3-.5s.4,0,.4.5-.3,2-.4,2.8h0c0,.1-.1.1-.1.1-1.1,0-2.2.2-3.3.3h-.1c-.1,0-.3,0-.5,0s-.4,0-.6,0ZM220.8,32.8h0s0,0,0,0Z"/>
        </g>
        <g>
          <path class="st0" d="M234.4,34.2c-.5,0-1.8,0-2.9,0-.5,0-1,0-1.4.2-.2,0-.4,0-.5,0-.5,0-1.1-.6-1.1-.9s0,0,0,0,0,0,.2.1c.2.1.5.2.8.2.4,0,3.1-.2,4.3-.3.1,0,.3,0,.4,0,.2,0,.7,0,.7.3s-.2.3-.6.3Z"/>
          <path class="st0" d="M229.7,34.8c-.5,0-1.3-.6-1.3-1s.1-.2.2-.2,0,0,.3.2c.1,0,.4.1.7.1s3.1-.2,4.3-.3c.1,0,.3,0,.4,0,.6,0,.9.1.9.4s-.3.5-.8.5c-.2,0-.4,0-.7,0-.6,0-1.4,0-2.1,0-.6,0-1,0-1.4.2-.2,0-.4,0-.6,0ZM228.8,34c.2.2.5.5.9.5s.3,0,.5,0c.4,0,.9-.2,1.4-.2.7,0,1.6,0,2.2,0,.3,0,.5,0,.7,0h0c.3,0,.4-.1.4-.1,0,0-.1-.1-.6-.1s-.3,0-.4,0c-1.2.1-3.9.3-4.3.3s-.6,0-.8-.1Z"/>
        </g>
        <g>
          <path class="st0" d="M243.9,34.7c0,1.1-1.4,2.1-1.8,2.1s-.3-.1-.3-.3,0-.3.3-.4c.9-.4,1.3-.9,1.6-1.5,0,0,0-.1,0-.1,0,0,0,.2,0,.2ZM249,33c0,.1-.1.2-.3.2s-.1,0-.2,0c-.4,0-.8-.1-1.2-.1s-.7,0-1.1,0c-.1,0-.2,0-.3,0,0,.5,0,1.1,0,1.7v.6c0,.6,0,.9,0,1.2,0,.8-.3,1-.4,1s-.3-.2-.3-.4c0-.4-.5-1.1-.9-1.6,0,0,0,0,0,0s0,0,0,0c0,0,0,0,0,0,.2.2.7.5.9.6,0,0,0,0,0,0,0,0,0,0,0-.2,0-1,0-1.9,0-2.9-.3,0-.7,0-.9.2-.5,0-.6.2-.9.2s-1.4-.2-1.4-.7,0-.2,0-.2.2,0,.3.1c.4.2.8.2,1.2.2s1.5-.1,1.7-.2v-.8h0c0-.7-.2-1-.7-1s0,0-.1,0-.1,0-.1-.1,0-.3.4-.3,1.2.2,1.2.7,0,.4-.1.7c0,.2,0,.4,0,.7.3,0,.7,0,.9-.1.5,0,.5-.3,1-.3s1.2.2,1.2.5ZM249.4,36.1c0,.2-.2.4-.3.4s-.2,0-.3-.2c-.4-.6-1.1-1.3-1.8-1.7-.1,0-.2-.1-.2-.1s0,0,0,0c.4,0,2.6.9,2.6,1.7ZM248.6,32.2c-.5,0-1-.4-1-1s.4-1,1-1,1,.4,1,1-.4,1-1,1ZM248.6,30.6c-.4,0-.7.3-.7.7s.3.7.7.7.7-.3.7-.7-.3-.7-.7-.7Z"/>
          <path class="st0" d="M245.5,37.9c-.2,0-.4-.2-.5-.6,0-.3-.3-.8-.9-1.5,0,0,0,0,0-.2v-.2h.2s0,0,.1,0h0c0,0,.2.2.3.2.2.1.4.3.5.4,0-.6,0-1.3,0-1.9v-.8c-.2,0-.5,0-.7.1-.2,0-.3,0-.4,0-.2,0-.3,0-.5,0-.3,0-1.6-.2-1.6-.8s.1-.3.2-.3.2,0,.3,0h0c.4.2.7.2,1.1.2s1.2,0,1.6-.1v-.7c0-.6-.2-.8-.5-.8s0,0,0,0c0,0,0,0,0,0,0,0-.3,0-.3-.3s.1-.4.5-.4,1.3.2,1.3.9,0,.2,0,.3c0,.1,0,.2,0,.4v.2c0,0,0,.2,0,.3.3,0,.5,0,.7,0,.2,0,.3,0,.5-.1.1,0,.3-.1.5-.1s1.4.2,1.4.7-.2.4-.7.3c-.7-.1-1.4-.1-2.2,0,0,0-.1,0-.2,0,0,0,0,0,0,0,0,.5,0,1,0,1.5v.6c0,.3,0,.5,0,.7,0,.2,0,.3,0,.5,0,.9-.4,1.2-.6,1.2ZM244.9,36.3c.3.4.4.8.5,1,0,.2.1.3.2.3,0,0,.3-.2.3-.9s0-.3,0-.5c0-.2,0-.4,0-.8v-.6c0-.6,0-1.2,0-1.7v-.3c0-.2,0-.4,0-.5v-.2c0-.2,0-.3,0-.4,0-.1,0-.2,0-.3,0-.3-.8-.5-1-.5s-.1,0-.2,0c0,0,0,0,0,0,.7,0,.8.6.8,1.1v1h-.1c-.3,0-1.4.2-1.7.2-.4,0-.8,0-1.2-.2h0s0,0,0,0c.1.3.9.5,1.2.5s.3,0,.4,0c.1,0,.2,0,.4,0,.3,0,.6-.1,1-.2h.2s0,1.1,0,1.1c0,.6,0,1.3,0,1.9,0,.2-.1.3-.2.3s-.1,0-.2,0c0,0-.2-.1-.3-.2ZM244.3,35.6h0c0,.1,0,.1,0,.1,0,0,0,0,0,0h0c0,0,0-.1,0-.1ZM247.3,32.9c.4,0,.8,0,1.2.1,0,0,.1,0,.2,0,.1,0,.2,0,.2,0,0-.1-.7-.3-1.1-.3s-.3,0-.4,0c-.1,0-.3.1-.5.2-.2,0-.5,0-.9.1h-.1s0,0,0,0c0,0,.1,0,.2,0,0,0,.1,0,.2,0,.4,0,.7,0,1.1,0ZM242.1,37c-.3,0-.5-.2-.5-.4s0-.4.4-.5c.8-.4,1.3-.8,1.5-1.5,0-.1.1-.2.2-.2s.2,0,.2.4c0,1.2-1.4,2.3-2,2.3ZM243.7,35c-.3.5-.8.9-1.5,1.3-.2,0-.3.2-.3.3s0,.1.2.1c.3,0,1.4-.8,1.6-1.6ZM249.1,36.6c-.1,0-.3,0-.5-.3-.4-.6-1.1-1.3-1.8-1.7-.1,0-.3-.2-.3-.3s0-.2.2-.2c.5,0,2.8,1,2.8,1.9s-.2.6-.5.6ZM247.5,34.7c.5.4,1,.9,1.3,1.4,0,0,.1.2.2.2s.2-.1.2-.3c0-.4-1-1-1.7-1.3ZM248.6,32.4c-.6,0-1.1-.5-1.1-1.1s.5-1.1,1.1-1.1,1.1.5,1.1,1.1-.5,1.1-1.1,1.1ZM247.9,30.9c0,.1,0,.2,0,.3,0,.3.2.6.5.8-.3-.1-.5-.4-.5-.8s0-.2,0-.3ZM248.6,30.8c-.3,0-.5.2-.5.5s.2.5.5.5.5-.2.5-.5-.2-.5-.5-.5ZM249.4,31c0,0,0,.2,0,.3,0,.2,0,.3-.1.5,0-.1.2-.3.2-.5s0-.2,0-.3Z"/>
        </g>
        <g>
          <path class="st0" d="M263.6,32.8c0,0,0,.1-.2.2-.2.1-.3,0-.5.4-1.6,2.8-3.5,4.2-5.5,4.8,0,0-.2,0-.2,0s0,0,0,0c0,0,0,0,.2-.2,1.5-.7,3.4-2.1,5-5,0,0,0-.1,0-.2,0-.1-.1-.2-.3-.2s-1.6.2-2.3.4c-.5.2-.8.3-1.1.3-.4,0-1.4-.4-1.4-.7s0-.2.2-.2.2,0,.2,0c0,.1.4.2.8.2s.5,0,.8,0c.5,0,1.7-.3,2.4-.3.3,0,.4-.3.6-.3s1.2.2,1.2.6ZM262.6,30.8c0,.1-.1.2-.4.3-.8,0-1.7.2-2.6.4-.1,0-.2,0-.3,0-.6,0-1-.3-1-.6s0-.1,0-.1,0,0,.1,0c.2.2.5.2.8.2.5,0,1.1-.1,1.5-.2.3,0,.5-.3,1-.3s.7,0,.7.3Z"/>
          <path class="st0" d="M257.2,38.5c-.1,0-.2,0-.2-.2s0-.2.3-.3c1.4-.6,3.3-1.9,4.9-4.9,0,0,0,0,0,0,0,0-.1,0-.2,0-.2,0-1.6.2-2.2.4-.2,0-.3,0-.4.1-.3,0-.5.2-.7.2-.5,0-1.5-.5-1.5-.9s.2-.3.3-.3.3,0,.3.2c0,0,0,0,.7,0s.5,0,.8,0c.1,0,.3,0,.5,0,.6,0,1.4-.2,1.9-.2.1,0,.2,0,.3-.1.1,0,.2-.1.4-.1s1.4.2,1.4.7-.1.3-.2.4c0,0-.1,0-.2.1-.1,0-.2,0-.3.3-1.4,2.6-3.3,4.2-5.6,4.9,0,0-.2,0-.3,0ZM262.1,32.6c.3,0,.5.2.5.4s0,.1,0,.2c-1.2,2.3-2.7,3.6-3.9,4.4,1.7-.8,3-2.2,4.1-4.2.2-.3.3-.4.4-.4,0,0,0,0,.1,0,0,0,0,0,0,0,0-.2-.8-.4-1-.4,0,0-.1,0-.2,0,0,0-.2.1-.3.1,0,0,.1,0,.2,0ZM257.5,32.7c0,.2.8.6,1.2.6s.3,0,.6-.1c.1,0,.3,0,.4-.1.5-.2,1.3-.3,1.8-.4-.5,0-1.2.1-1.7.2-.2,0-.4,0-.5,0-.2,0-.5,0-.8,0-.8,0-.9-.1-1-.3,0,0,0,0,0,0ZM259.3,31.6c-.7,0-1.1-.4-1.1-.7s.2-.3.2-.3.2,0,.2.1c.1.1.4.2.7.2.5,0,1.1-.1,1.5-.2.1,0,.2,0,.3-.1.2,0,.4-.2.7-.2s.9.1.9.5-.2.4-.5.4c-.7,0-1.6.2-2.6.4-.1,0-.2,0-.3,0ZM258.6,31c.1.1.4.3.7.3s.2,0,.3,0c.9-.2,1.8-.3,2.6-.4.2,0,.2,0,.2-.1,0-.1-.3-.2-.5-.2s-.4,0-.5.2c-.1,0-.2.1-.4.2-.5.1-1.1.2-1.6.2s-.6,0-.8-.1Z"/>
        </g>
        <g>
          <path class="st0" d="M278.2,33c0,.1-.1.2-.3.2s0,0-.1,0c-.5-.1-.9-.2-1.4-.2s-.7,0-1.4,0c.4,0,.6.3.6.6s0,.2,0,.3c-.7,3.7-4.3,4.7-4.5,4.7s0,0,0,0c0,0,.1-.1.3-.2,2.1-.9,3.6-3.3,3.6-4.6s0-.5-.3-.5,0,0,0,0c0,0,0,0,0,0,0,0,0,0,0,0,0,0,0,0,0-.1-.6,0-1.1.2-1.5.4-.3,0-.4.1-.6.1-.5,0-1.4-.3-1.4-.7s0,0,0,0,.1,0,.2,0c.2.1.7.2,1,.2s.2,0,.3,0c1-.2,2.3-.4,3.6-.6.4,0,.5-.2.9-.2s1.2.3,1.2.6ZM273.6,31.5c-.1,0-.2,0-.3,0-.8,0-1-.5-1-.6s0,0,0,0,0,0,0,0c.2.1.5.2.8.2s.7,0,1.8-.3c.3,0,.4-.2.8-.2s.8.2.8.4-.1.2-.4.2c-.8,0-2,.3-2.6.3Z"/>
          <path class="st0" d="M270.8,38.8h-.2v-.2c0,0,0-.2.4-.3,2-.9,3.5-3.1,3.5-4.4s0-.4-.1-.4c0,0,0,0,0,0,0,0,0,0-.1,0-.1,0-.2,0-.2-.1-.5,0-.9.2-1.2.3-.3,0-.4.2-.7.2-.5,0-1.5-.3-1.5-.9s.1-.3.3-.3.2,0,.3,0c.3.1.9.2,1.2.2.2,0,.5,0,.8-.1.8-.1,1.8-.3,2.8-.4.2,0,.3,0,.4-.1.1,0,.3-.1.5-.1.3,0,1.4.3,1.4.8s-.2.4-.5.4,0,0-.2,0c-.5-.1-.9-.2-1.4-.2s-.4,0-.9,0c.1.1.1.3.1.5s0,.2,0,.3c-.7,3.8-4.3,4.8-4.7,4.8ZM274.6,33.2c.1,0,.2.3.2.6,0,1.2-1,2.9-2.6,4,1.1-.6,2.5-1.8,2.9-4,0,0,0-.2,0-.3,0-.2,0-.3-.4-.4h-.2ZM271,33.1c.1.2.8.5,1.2.5s.3,0,.5-.1c.3-.1.7-.2,1.2-.3h0s.9-.1.9-.1c.7,0,1.2,0,1.4,0,.5,0,1,0,1.5.2.1,0,.3,0,.3,0,0-.2-.7-.4-1.1-.4s-.3,0-.4,0c-.1,0-.3.1-.5.1-1,.1-2,.3-2.8.4-.3,0-.6,0-.8.1-.4,0-1.1,0-1.4-.2,0,0,0,0,0,0ZM273.3,31.7c-1,0-1.2-.5-1.2-.8,0-.3.3-.2.4-.2.2.1.4.2.7.2s.6,0,1.8-.3c0,0,.2,0,.3,0,.1,0,.3-.1.6-.1.5,0,1,.2,1,.5s0,.3-.6.4c-.6,0-1.3.1-1.9.2-.3,0-.5,0-.7.1h0c-.1,0-.2,0-.4,0ZM272.5,31.1c.1.1.3.3.8.3s.2,0,.3,0c.2,0,.4,0,.7-.1.6-.1,1.3-.2,1.9-.2.2,0,.2,0,.3,0,0,0-.3-.2-.7-.2s-.3,0-.4.1-.2,0-.3.1c-1.1.2-1.5.3-1.9.3s-.5,0-.7-.1Z"/>
        </g>
        <g>
          <path class="st0" d="M287.7,33.6c0,0-.1.1-.2.2-.2.2-.3.5-.6.8.2.1.3.3.3.5s0,0,0,.1c0,0,0,.3,0,.6v.9c0,.4,0,.8,0,.8h0c0,.3,0,.8-.3.8s-.3,0-.3-.7,0-.2,0-.3c0-.2,0-.3,0-.5,0-.5,0-1,0-1.5s0-.3,0-.5c-1.3,1.5-2.7,2-2.9,2s0,0,0,0c0,0,0,0,.2-.2,1.6-.8,3.3-3.1,3.3-3.5s0-.2-.3-.2c0,0-.1,0-.1-.1,0,0,.1-.2.3-.2.3,0,.9.3.9.6s-.1.3-.2.4Z"/>
          <path class="st0" d="M286.9,38.6c0,0-.5,0-.5-.9s0-.2,0-.3c0-.1,0-.2,0-.3,0,0,0-.1,0-.3,0-.5,0-1,0-1.5s0,0,0-.1c-1.3,1.3-2.5,1.8-2.8,1.8s-.2,0-.2-.2,0-.2.3-.3c1.6-.9,3.2-3,3.2-3.4,0,0,0,0-.2,0-.2,0-.2-.2-.2-.3,0-.2.2-.4.5-.4s1,.4,1,.8-.2.4-.2.5h0c0,.1,0,.1,0,.2-.1.2-.3.4-.5.7.1.1.2.3.2.5s0,.2,0,.2c0,0,0,.3,0,.5v.9c0,.3,0,.6,0,.8v.2c0,.7-.3.9-.5.9ZM286.7,34.7v.2c.1.1.1.3.1.5,0,.5,0,1,0,1.5,0,.1,0,.2,0,.3,0,0,0,.1,0,.2,0,.1,0,.2,0,.3,0,.4.1.5.2.5,0,0,.2-.2.2-.5v-.2c0-.1,0-.4,0-.8v-.9c0-.5,0-.6,0-.7,0,0,0,0,0,0,0-.1,0-.3-.2-.4h-.2c0,0,.1-.2.1-.2.2-.3.4-.5.6-.8,0,0,0-.1.1-.2h0c0-.1.1-.3.1-.3,0-.2-.5-.4-.7-.4s-.1,0-.1,0c.2,0,.4.1.4.4,0,.5-1.2,2-2.4,3.1.5-.3,1.1-.8,1.7-1.5l.2-.2Z"/>
        </g>
        <g>
          <path class="st0" d="M302.1,32c0,0,0,.1-.2.2-.2.1-.3.2-.5.5-1.4,2.5-3.1,4.5-5.6,5.3,0,0-.1,0-.2,0,0,0,0,0,0,0,0,0,0-.1.2-.2,3.1-1.3,5.2-5.3,5.2-5.6s-.1-.3-.4-.3-1.5.2-2.5.5c-.5.1-.7.3-1,.3-.4,0-1.4-.6-1.4-.8s.1-.2.2-.2.1,0,.1,0c0,.2.5.2,1,.2s.5,0,.7,0c.5,0,1.9-.3,2.5-.3.3,0,.4-.3.7-.3s1.2.3,1.2.6ZM302.7,31.3c0,.2-.1.3-.3.3s-.2,0-.3-.2c-.3-.3-.7-.6-1-.8,0,0-.2,0-.2,0,0,0,.2,0,.2,0,.2,0,1.4,0,1.4.7ZM303.9,30.8c0,.2-.1.3-.3.3s-.2,0-.3-.1c-.3-.3-.7-.6-1-.7,0,0-.2,0-.2,0s0,0,.3,0c.5,0,1.4.2,1.4.7Z"/>
          <path class="st0" d="M295.6,38.2c-.2,0-.3-.1-.3-.2s.1-.2.3-.3c2.9-1.2,5-5.1,5.1-5.5,0,0-.1-.1-.2-.1-.2,0-1.4.2-2.4.5-.2,0-.3,0-.4.1-.2,0-.4.1-.6.1-.5,0-1.5-.6-1.5-1s.2-.3.4-.3.2,0,.3.2h0s0,.2.8.2.5,0,.7,0c.2,0,.6,0,1-.1.6,0,1.1-.2,1.5-.2.1,0,.2,0,.3-.1.1,0,.2-.2.4-.2.3,0,1.4.3,1.4.8s0,.2-.2.4h0c-.1.1-.2.2-.4.5-1.7,3-3.5,4.7-5.7,5.3,0,0-.2,0-.2,0ZM300.5,31.8c.3,0,.5.2.5.4s-1.7,3.6-4.3,5.2c1.7-.8,3.1-2.4,4.5-4.8.2-.4.3-.4.5-.5h0c0-.1,0-.1,0-.1,0-.2-.8-.5-1.1-.5s-.1,0-.2,0c-.1,0-.2.2-.5.2-.3,0-.9.1-1.4.2-.4,0-.8.1-1.1.2-.2,0-.5,0-.7,0-.6,0-1-.1-1.1-.3,0,0,0,0,0,0,0,.2.8.7,1.2.7s.3,0,.5-.1c.1,0,.2,0,.4-.1.9-.3,2.2-.5,2.5-.5ZM302.5,31.7c-.1,0-.3,0-.4-.2-.2-.3-.5-.5-.9-.7-.1,0-.2-.1-.2-.2,0-.2.2-.2.4-.2s1.6,0,1.6.9-.2.5-.4.5ZM301.6,30.7c.3.2.5.4.7.6.1.1.3,0,.3,0,0-.4-.6-.5-1-.6ZM303.6,31.2c0,0-.2,0-.4-.2-.2-.3-.6-.5-1-.7h0c0,0-.2-.1-.2-.2,0-.2.2-.2.5-.2.5,0,1.6.2,1.6.9s-.2.4-.4.4ZM302.7,30.2c.3.2.5.4.7.6.1.1.3.1.3,0,0-.3-.6-.5-1-.5Z"/>
        </g>
        <g>
          <path class="st0" d="M309.2,36.9c0,0,0,0,0,0s0,0,.1,0c1.8-.5,3.8-2.5,3.8-3.3s-.4-.5-.5-.6c0,0,0,0,0,0,0,0,.1-.2.4-.2s.9.4.9.9-.3.6-.3.7c-1.6,2.4-3.9,2.8-4.2,2.8ZM318.1,35.5c0,.3-.2.5-.3.5s-.3-.1-.4-.5c-.3-1-1.3-2.1-2.1-2.8-.1-.1-.3-.3-.3-.3s0,0,0,0c.3,0,3.1,1.8,3.1,3.1Z"/>
          <path class="st0" d="M309.2,37.1c-.2,0-.3-.2-.3-.2,0-.1.1-.2.3-.3,1.7-.5,3.7-2.4,3.7-3.2s-.2-.4-.4-.4c-.1,0-.2-.1-.2-.2,0-.2.2-.4.6-.4s1.1.5,1.1,1.1-.2.6-.3.7c0,0,0,0,0,0-1.5,2.3-3.9,2.9-4.4,2.9ZM312.6,32.7c.2,0,.5.2.5.7,0,.8-1.3,2.2-2.7,3,.8-.3,1.9-1,2.8-2.4,0,0,0,0,0,0,0-.1.2-.3.2-.5,0-.4-.6-.8-.8-.8s-.1,0-.2,0ZM317.8,36.2c-.1,0-.4,0-.6-.6-.3-1-1.3-2-2.1-2.8-.2-.2-.3-.3-.3-.4v-.2h.2c.4,0,3.3,1.8,3.3,3.3s-.2.7-.5.7ZM315.7,33c.7.7,1.5,1.7,1.8,2.5,0,.3.2.4.3.4s.2-.1.2-.3c0-.9-1.4-2-2.2-2.6Z"/>
        </g>
        <g>
          <path class="st0" d="M331.9,33.4c-1.2,2.6-2.7,4.2-5.1,4.9-.1,0-.2,0-.3,0s0,0,0,0c0,0,.1-.1.3-.2,2.1-1,3.5-2.7,4.6-5.1,0,0,0-.2,0-.2,0-.2-.1-.2-.3-.2-.6,0-2.7.3-3.3.4-.1,0-.2,0-.3,0s-.1,0-.2,0c0,0,0,.2,0,.3.2,1.3.3,1.6.3,1.8s0,.5-.3.5-.4-.4-.4-.8,0-.3,0-.5c0-.3-.2-1-.2-1-.2-.6-.6-.9-1.2-.9h0s-.1,0-.1,0c0-.2.3-.3.6-.3s.9.1,1.1.7h0c.2,0,.5,0,1.7-.2,0-.2,0-.4,0-.8,0-.7-.3-.9-.8-1-.1,0-.2,0-.2-.1s.1-.2.5-.2,1.2.3,1.2.6-.2.5-.2.8c0,.2,0,.4,0,.7.6,0,1.1-.1,1.3-.1.3,0,.4-.3.7-.3s1.1.3,1.1.7,0,.2-.1.2c-.2.1-.4.1-.5.5Z"/>
          <path class="st0" d="M326.5,38.5c-.2,0-.2-.1-.2-.2,0-.1.1-.2.4-.4,1.9-.9,3.4-2.5,4.5-5,0,0,0-.1,0-.2,0,0,0,0-.2,0-.6,0-2.7.3-3.3.4-.1,0-.2,0-.3,0h0c.3,1.3.3,1.7.3,1.9,0,.4-.2.6-.4.6s-.6-.5-.6-1,0-.2,0-.3c0,0,0-.1,0-.2,0-.3-.2-.9-.2-1-.1-.4-.4-.8-1-.8s-.3,0-.3-.2c0-.3.3-.5.7-.5s.9.1,1.2.7c.2,0,.4,0,1.6-.1,0,0,0,0,0-.1,0-.1,0-.3,0-.5,0-.6-.2-.7-.6-.8-.2,0-.3-.1-.3-.3s.2-.4.6-.4,1.4.3,1.4.8,0,.3-.1.4c0,.1-.1.2-.1.4,0,.1,0,.2,0,.3,0,0,0,0,0,.1.2,0,.4,0,.5,0,.3,0,.5,0,.6,0,.1,0,.2,0,.3-.1,0,0,.2-.1.4-.1.3,0,1.3.3,1.3.8s0,.3-.2.3c0,0-.1,0-.2,0-.1,0-.2.1-.3.3-1.3,2.8-2.9,4.3-5.2,5-.2,0-.3,0-.3,0ZM331.1,32.4c.4,0,.5.3.5.4s0,.2,0,.3c-1,2.2-2.2,3.7-3.7,4.6,1.6-.8,2.9-2.2,3.9-4.4h0c.2-.3.3-.4.5-.5,0,0,0,0,.1,0,0,0,0,0,0,0,0-.2-.7-.5-1-.5s-.1,0-.2,0c-.1,0-.2.2-.5.2-.1,0-.3,0-.6,0-.2,0-.5,0-.7,0h-.2s0-.2,0-.2c0-.1,0-.2,0-.3,0-.1,0-.2,0-.3,0-.2,0-.3.2-.5,0-.1,0-.2,0-.3,0-.2-.6-.5-1-.5s-.2,0-.2,0c.4,0,.8.3.9,1.1,0,.2,0,.4,0,.5,0,.1,0,.2,0,.3h0c0,.1-.1.2-.1.2-1.3.1-1.6.2-1.7.2h-.2c-.2-.6-.8-.7-1-.7s-.2,0-.3,0c.6,0,1,.4,1.3,1.1,0,0,.2.7.2,1.1s0,.2,0,.3c0,0,0,.1,0,.2,0,.4.1.6.2.6s.1-.2.1-.3,0-.5-.3-1.8c0,0,0-.2,0-.3v-.2s.2,0,.2,0c0,0,0,0,.1,0,0,0,.2,0,.3,0,.6-.2,2.7-.5,3.3-.5Z"/>
        </g>
        <g>
          <path class="st0" d="M347.2,37c0,.2-.1.4-.3.4s-.3,0-.4-.3c-.5-.7-1.5-1.6-2.2-2.1,0,0-.2-.1-.2-.1-2.4,2.6-4.8,3-4.9,3s0,0,0,0c0,0,.2-.1.3-.2,3.3-1.4,5.6-4.8,5.6-5.2s0-.2-.3-.2c-.4,0-1.5.4-1.9.6-.4.2-.5.2-.7.2-.4,0-1.2-.4-1.2-.7s0-.2.1-.2.1,0,.1,0c0,.1.3.2.5.2s.5,0,.8,0c.4,0,1.3-.3,1.8-.3.3,0,.5-.3.7-.3s1.1.2,1.1.7,0,.1,0,.2c-.2.1-.3.2-.6.5-.4.7-.8,1.3-1.3,1.8.5,0,3.1,1.3,3.1,2.2Z"/>
          <path class="st0" d="M339.1,38.1c-.2,0-.2-.2-.2-.2,0-.1,0-.2.4-.4,3.4-1.4,5.5-4.7,5.5-5.1,0,0,0,0-.1,0-.3,0-1.4.4-1.8.6,0,0-.2,0-.2.1-.2,0-.3.1-.5.1-.4,0-1.3-.4-1.3-.9s.2-.4.3-.4c.1,0,.2,0,.3.2,0,0,.1,0,.4,0s.5,0,.7,0c.2,0,.5,0,.9-.2.3,0,.7-.1.9-.2.1,0,.2,0,.3-.2.1,0,.3-.2.4-.2.2,0,1.2.3,1.2.8s0,.2-.2.3h0c-.2.1-.3.2-.4.5-.4.6-.7,1.1-1.2,1.6.8.3,2.9,1.4,2.9,2.3s-.2.5-.5.5-.4-.1-.5-.4c-.5-.7-1.5-1.5-2.2-2,0,0,0,0,0,0-2.4,2.6-4.9,2.9-5,2.9ZM344.7,32.1c.4,0,.4.3.4.4,0,.6-2,3.4-4.8,4.9.9-.4,2.3-1.1,3.6-2.6h0c.5-.6.9-1.2,1.3-1.9.2-.3.4-.4.5-.5h0c0,0,0,0,0,0,0-.2-.7-.5-.9-.5s-.1,0-.2.1c0,0-.1,0-.2.1,0,0,.2,0,.2,0ZM344.9,35.3c.6.5,1.3,1.1,1.7,1.7.2.3.4.2.4,0,0-.5-1.2-1.3-2.1-1.7ZM341.2,32.4c0,.2.7.5,1,.5s.2,0,.4-.1c0,0,.2,0,.3-.1,0,0,.8-.3,1.4-.5-.2,0-.4,0-.7.1-.4,0-.7.1-.9.2-.2,0-.5,0-.8,0s-.5,0-.6-.2Z"/>
        </g>
      </g>
    </g>
    <g>
      <g>
        <path class="st0" d="M.8,26.6l-.2-1.2c.7.8,1.8,1.2,2.8,1.2s1.7-.6,1.7-1.5-.8-1.4-1.8-1.9c-1.3-.6-2.3-1.1-2.3-2.5s1.1-2.2,2.6-2.2,1.4.2,1.9.5l.2,1.1c-.7-.6-1.5-.8-2.1-.8-1.1,0-1.7.6-1.7,1.3s1,1.4,2,1.8c1.2.6,2.2,1.2,2.2,2.5s-1.2,2.3-2.6,2.3-1.7-.2-2.5-.8Z"/>
        <path class="st0" d="M13.6,18.8h4.7l.2.8h-4v3.1h3.6v.8h-3.6v3.2h4.1l-.2.8h-4.8v-8.5Z"/>
        <path class="st0" d="M27.9,19.6h-2.8v-.8h6.5v.8h-2.8v7.8h-.8v-7.8Z"/>
        <path class="st0" d="M41.3,18.8h.4l3.6,8.6h-.9l-1.1-2.6h-3.7l-1.1,2.6h-.9l3.6-8.6ZM43,24l-1.5-3.7h0l-1.5,3.7h3.1Z"/>
        <path class="st0" d="M51.8,23.1c0-2.4,1.8-4.4,4.5-4.4s1.9.2,2.5.6l.2,1.1c-.8-.6-1.6-.9-2.7-.9-1.9,0-3.7,1.3-3.7,3.6s1.5,3.6,3.7,3.6,1.4-.1,2-.5v-2.2h-2.2l.2-.8h2.8v3.5c-.8.4-1.8.7-2.9.7-2.7,0-4.5-2-4.5-4.4Z"/>
        <path class="st0" d="M69.4,18.8h.4l3.6,8.6h-.9l-1.1-2.6h-3.7l-1.1,2.6h-.9l3.6-8.6ZM71.1,24l-1.5-3.7h0l-1.5,3.7h3.1Z"/>
        <path class="st0" d="M82.6,23.8l-3.1-4.9h1l2.6,4.1,2.6-4.1h1l-3.1,4.9v3.6h-.8v-3.6Z"/>
        <path class="st0" d="M96.2,18.8h.4l3.6,8.6h-.9l-1.1-2.6h-3.7l-1.1,2.6h-.9l3.6-8.6ZM98,24l-1.5-3.7h0l-1.5,3.7h3.1Z"/>
      </g>
      <g>
        <g>
          <path class="st0" d="M3.8,32.5h.6l3.8,8.6h-1.6l-.8-2h-3.4l-.8,2H0l3.8-8.6ZM5.3,37.8l-1.2-2.8h0l-1.2,2.8h2.4Z"/>
          <path class="st0" d="M8.3,41.2h-1.7s-.8-2-.8-2h-3.4l-.8,2H0h0c0,0,3.8-8.7,3.8-8.7h.7l3.8,8.7ZM6.7,41.1h1.5l-3.8-8.5h-.6L.1,41.1h1.5l.8-2h3.5s.8,2,.8,2ZM5.4,37.9h-2.5l1.2-2.9h0s1.2,2.9,1.2,2.9ZM3,37.8h2.2l-1.1-2.7-1.1,2.7Z"/>
        </g>
        <g>
          <path class="st0" d="M15,32.6h1.5v3.9l3.4-3.9h1.8l-3.2,3.6,3.5,5h-1.7l-2.7-3.9-1.1,1.2v2.7h-1.5v-8.5Z"/>
          <path class="st0" d="M22.1,41.2h-1.8s-2.7-3.9-2.7-3.9l-1,1.1v2.8h-1.6v-8.6h1.6v3.8l3.4-3.8h1.9l-3.2,3.6,3.5,5ZM20.3,41.1h1.7l-3.4-4.9h0s3.1-3.5,3.1-3.5h-1.7l-3.5,4v-4h-1.4v8.5h1.4v-2.7l1.1-1.2,2.7,4Z"/>
        </g>
        <g>
          <path class="st0" d="M31.4,32.5h.6l3.8,8.6h-1.6l-.8-2h-3.4l-.8,2h-1.6l3.8-8.6ZM32.9,37.8l-1.2-2.8h0l-1.2,2.8h2.4Z"/>
          <path class="st0" d="M35.9,41.2h-1.7s-.8-2-.8-2h-3.4l-.8,2h-1.7,0c0,0,3.8-8.7,3.8-8.7h.7l3.8,8.7ZM34.3,41.1h1.5l-3.8-8.5h-.6l-3.8,8.5h1.5l.8-2h3.5s.8,2,.8,2ZM33,37.9h-2.5l1.2-2.9h0s1.2,2.9,1.2,2.9ZM30.6,37.8h2.2l-1.1-2.7-1.1,2.7Z"/>
        </g>
        <g>
          <path class="st0" d="M44.4,33.9h-2.7v-1.3h6.9v1.3h-2.7v7.2h-1.5v-7.2Z"/>
          <path class="st0" d="M46,41.2h-1.6v-7.2h-2.7v-1.4h6.9v1.4h-2.7v7.2ZM44.5,41.1h1.4v-7.2h2.7v-1.3h-6.8v1.3h2.7v7.2Z"/>
        </g>
        <g>
          <path class="st0" d="M55.3,40.4l-.2-1.7c.8.7,1.9,1.2,2.8,1.2s1.4-.4,1.4-1.1-.8-1-1.7-1.4c-1.4-.6-2.3-1.2-2.3-2.5s1.1-2.4,2.8-2.4,1.4.2,2,.4l.2,1.7c-.8-.5-1.6-.8-2.3-.8s-1.3.5-1.3,1,.9,1,1.8,1.4c1.2.5,2.2,1.1,2.2,2.5s-1.3,2.5-2.9,2.5-1.8-.3-2.6-.8Z"/>
          <path class="st0" d="M57.8,41.3c-.9,0-1.8-.3-2.6-.8h0s-.2-1.9-.2-1.9h0c.8.9,2,1.2,2.7,1.2s1.4-.4,1.4-1-.6-.9-1.4-1.3c0,0-.1,0-.2,0-1.4-.6-2.3-1.2-2.3-2.6s1.1-2.4,2.9-2.4,1.5.2,2,.4h0s0,0,0,0l.2,1.8h0c-.7-.5-1.5-.8-2.2-.8s-1.3.4-1.3.9.7.9,1.5,1.3c0,0,.2,0,.2,0,1.1.5,2.2,1.1,2.2,2.6s-1.2,2.5-2.9,2.5ZM55.3,40.4c.8.5,1.6.8,2.5.8,1.7,0,2.9-1,2.9-2.5s-1.1-2.1-2.2-2.5c0,0-.2,0-.2,0-.8-.3-1.5-.6-1.5-1.3s.4-1,1.3-1,1.5.3,2.2.7l-.2-1.6c-.6-.3-1.3-.4-2-.4-1.7,0-2.8.9-2.8,2.4s.8,1.9,2.3,2.5c0,0,.1,0,.2,0,.8.3,1.5.6,1.5,1.3s-.6,1.1-1.4,1.1-1.9-.3-2.7-1.1l.2,1.6Z"/>
        </g>
        <g>
          <path class="st0" d="M67.9,37.6v-5h1.5v5c0,1.6.9,2.3,2.1,2.3s2.1-.8,2.1-2.3v-5h1.5v5c0,2.3-1.6,3.6-3.6,3.6s-3.6-1.3-3.6-3.6Z"/>
          <path class="st0" d="M71.5,41.3c-2.2,0-3.6-1.5-3.6-3.7v-5h1.6v5c0,1.5.7,2.3,2,2.3s2-.9,2-2.3v-5h1.6v5.1c0,2.2-1.5,3.7-3.6,3.7ZM67.9,32.6v5c0,2.2,1.4,3.6,3.5,3.6s3.5-1.4,3.5-3.6v-5h-1.4v5c0,1.4-.8,2.3-2.1,2.3s-2.1-.9-2.1-2.4v-5h-1.4Z"/>
        </g>
        <g>
          <path class="st0" d="M84.6,33.9h-2.7v-1.3h6.9v1.3h-2.7v7.2h-1.5v-7.2Z"/>
          <path class="st0" d="M86.2,41.2h-1.6v-7.2h-2.7v-1.4h6.9v1.4h-2.7v7.2ZM84.7,41.1h1.4v-7.2h2.7v-1.3h-6.8v1.3h2.7v7.2Z"/>
        </g>
        <g>
          <path class="st0" d="M95.5,40.4l-.2-1.7c.8.7,1.9,1.2,2.8,1.2s1.4-.4,1.4-1.1-.8-1-1.7-1.4c-1.4-.6-2.3-1.2-2.3-2.5s1.1-2.4,2.8-2.4,1.4.2,2,.4l.2,1.7c-.8-.5-1.6-.8-2.3-.8s-1.3.5-1.3,1,.9,1,1.8,1.4c1.2.5,2.2,1.1,2.2,2.5s-1.3,2.5-2.9,2.5-1.8-.3-2.6-.8Z"/>
          <path class="st0" d="M98,41.3c-.9,0-1.8-.3-2.6-.8h0s-.2-1.9-.2-1.9h0c.8.9,2,1.2,2.7,1.2s1.4-.4,1.4-1-.6-.9-1.4-1.3c0,0-.1,0-.2,0-1.4-.6-2.3-1.2-2.3-2.6s1.1-2.4,2.9-2.4,1.5.2,2,.4h0s0,0,0,0l.2,1.8h0c-.7-.5-1.5-.8-2.2-.8s-1.3.4-1.3.9.7.9,1.5,1.3c0,0,.2,0,.2,0,1.1.5,2.2,1.1,2.2,2.6s-1.2,2.5-2.9,2.5ZM95.5,40.4c.8.5,1.6.8,2.5.8,1.7,0,2.9-1,2.9-2.5s-1.1-2.1-2.2-2.5c0,0-.2,0-.2,0-.8-.3-1.5-.6-1.5-1.3s.4-1,1.3-1,1.5.3,2.2.7l-.2-1.6c-.6-.3-1.3-.4-2-.4-1.7,0-2.8.9-2.8,2.4s.8,1.9,2.3,2.5c0,0,.1,0,.2,0,.8.3,1.5.6,1.5,1.3s-.6,1.1-1.4,1.1-1.9-.3-2.7-1.1l.2,1.6Z"/>
        </g>
        <g>
          <path class="st0" d="M108.1,37.6v-5h1.5v5c0,1.6.9,2.3,2.1,2.3s2.1-.8,2.1-2.3v-5h1.5v5c0,2.3-1.6,3.6-3.6,3.6s-3.6-1.3-3.6-3.6Z"/>
          <path class="st0" d="M111.7,41.3c-2.2,0-3.6-1.5-3.6-3.7v-5h1.6v5c0,1.5.7,2.3,2,2.3s2-.9,2-2.3v-5h1.6v5.1c0,2.2-1.5,3.7-3.6,3.7ZM108.1,32.6v5c0,2.2,1.4,3.6,3.5,3.6s3.5-1.4,3.5-3.6v-5h-1.4v5c0,1.4-.8,2.3-2.1,2.3s-2.1-.9-2.1-2.4v-5h-1.4Z"/>
        </g>
        <g>
          <path class="st0" d="M122.9,32.5h.6l3.6,4.2h0l3.5-4.2h.6v8.6h-1.5v-5.5l-2.5,3h-.2l-2.6-3.1v5.5h-1.5v-8.6Z"/>
          <path class="st0" d="M131.3,41.2h-1.6v-5.4l-2.5,3h-.3s-2.5-3-2.5-3v5.4h-1.5v-8.7h.7s3.5,4.2,3.5,4.2l3.5-4.2h.7v8.7ZM129.8,41.1h1.4v-8.5h-.6l-3.5,4.2h0s-3.6-4.2-3.6-4.2h-.6v8.5h1.4v-5.5l2.7,3.1h.2l2.6-3.1v5.5Z"/>
        </g>
        <g>
          <path class="st0" d="M139.1,32.6h1.5v8.5h-1.5v-8.5Z"/>
          <path class="st0" d="M140.6,41.2h-1.6v-8.6h1.6v8.6ZM139.1,41.1h1.4v-8.5h-1.4v8.5Z"/>
        </g>
      </g>
      <g>
        <path class="st0" d="M.4,48.7c0-1.2.9-2.1,2.1-2.1s.8.1,1.1.3v.7c-.3-.3-.6-.4-1.1-.4-.9,0-1.5.7-1.5,1.6s.6,1.6,1.5,1.6.9-.2,1.2-.4v.7c-.4.2-.8.3-1.2.3-1.3,0-2.1-.9-2.1-2.1Z"/>
        <path class="st0" d="M7.1,48.7c0-1.2.9-2.1,2.1-2.1s2.1.9,2.1,2.1-.9,2.1-2.1,2.1-2.1-.9-2.1-2.1ZM9.2,50.2c.8,0,1.5-.6,1.5-1.6s-.7-1.6-1.5-1.6-1.5.6-1.5,1.6.7,1.6,1.5,1.6Z"/>
        <path class="st0" d="M14.7,48.7c0-1.2.9-2.1,2.1-2.1s2.1.9,2.1,2.1-.9,2.1-2.1,2.1-2.1-.9-2.1-2.1ZM16.8,50.2c.8,0,1.5-.6,1.5-1.6s-.7-1.6-1.5-1.6-1.5.6-1.5,1.6.7,1.6,1.5,1.6Z"/>
        <path class="st0" d="M22.6,46.6h1.2c.9,0,1.4.6,1.4,1.3s-.6,1.3-1.4,1.3h-.6v1.5h-.6v-4.1ZM23.8,48.7c.6,0,.9-.3.9-.8s-.3-.8-.9-.8h-.6v1.6h.6Z"/>
        <path class="st0" d="M29,46.6h2.3v.5c0,0-1.7,0-1.7,0v1.3h1.6v.5h-1.6v1.3h1.9v.5h-2.5v-4.1Z"/>
        <path class="st0" d="M35.2,46.6h1.2c.9,0,1.4.5,1.4,1.2s-.3,1-.8,1.2l1.3,1.7h-.7l-1.2-1.6h-.7v1.6h-.6v-4.1ZM36.4,48.6c.5,0,.8-.3.8-.7s-.3-.7-.8-.7h-.6v1.5h.6Z"/>
        <path class="st0" d="M43,46.6h.2l1.8,4.2h-.6l-.5-1.1h-1.7l-.5,1.1h-.6l1.8-4.2ZM43.8,49.1l-.6-1.5h0l-.6,1.5h1.3Z"/>
        <path class="st0" d="M49.5,47.1h-1.3v-.5h3.3v.5h-1.3v3.6h-.6v-3.6Z"/>
        <path class="st0" d="M54.9,46.6h.6v4.1h-.6v-4.1Z"/>
        <path class="st0" d="M59.7,46.6l1.3,3.1h0l1.3-3.1h.6l-1.8,4.2h-.2l-1.8-4.2h.7Z"/>
        <path class="st0" d="M66.3,46.6h2.3v.5c0,0-1.7,0-1.7,0v1.3h1.6v.5h-1.6v1.3h1.9v.5h-2.5v-4.1Z"/>
        <path class="st0" d="M79.6,48.9h-2.2v1.8h-.6v-4.1h.6v1.8h2.2v-1.8h.6v4.1h-.6v-1.8Z"/>
        <path class="st0" d="M84,48.7c0-1.2.9-2.1,2.1-2.1s2.1.9,2.1,2.1-.9,2.1-2.1,2.1-2.1-.9-2.1-2.1ZM86,50.2c.8,0,1.5-.6,1.5-1.6s-.7-1.6-1.5-1.6-1.5.6-1.5,1.6.7,1.6,1.5,1.6Z"/>
        <path class="st0" d="M91.8,49v-2.5h.6v2.4c0,.8.4,1.2,1.1,1.2s1.1-.4,1.1-1.2v-2.5h.6v2.5c0,1-.7,1.7-1.7,1.7s-1.7-.7-1.7-1.7Z"/>
        <path class="st0" d="M99,50.4v-.7c.3.4.8.6,1.3.6s.7-.2.7-.6-.4-.6-.8-.8c-.7-.3-1.1-.6-1.1-1.2s.5-1.1,1.3-1.1.7,0,.9.2v.7c-.3-.3-.6-.4-1-.4s-.7.2-.7.5.4.6.9.8c.6.2,1.1.6,1.1,1.2s-.6,1.2-1.4,1.2-.8-.1-1.2-.4Z"/>
        <path class="st0" d="M105.3,46.6h2.3v.5c0,0-1.7,0-1.7,0v1.3h1.6v.5h-1.6v1.3h1.9v.5h-2.5v-4.1Z"/>
      </g>
      <g>
        <path class="st0" d="M196.7,49.1h-25.3V0h25.3v49.1ZM172.1,48.5h24V.6h-24v47.9Z"/>
        <rect class="st0" x="171.8" y="19.2" width="24.6" height=".6"/>
        <path class="st0" d="M171.7,19.9h-19c-.2,0-.4-.2-.4-.4v-2.1c0-4.6,1.8-9,5.1-12.2C160.6,1.8,164.9,0,169.6,0h2.1c.2,0,.4.2.4.4v19c0,.2-.2.4-.4.4ZM152.9,19.2h18.6V.6h-1.9c-4.5,0-8.6,1.7-11.8,4.9-3.1,3.1-4.9,7.3-4.9,11.8v1.9Z"/>
      </g>
      <polygon class="st0" points="196.7 49.1 115.8 49.1 115.8 48.5 196.1 48.5 196.1 .6 3.1 .6 3.1 12.8 2.4 12.8 2.4 0 196.7 0 196.7 49.1"/>
      <rect class="st0" x="165" y="33.9" width="38.3" height=".6" transform="translate(39.5 153.1) rotate(-50)"/>
    </g>
  </g>
</svg>