<?xml version="1.0" encoding="UTF-8"?>
<svg xmlns="http://www.w3.org/2000/svg" version="1.1" viewBox="0 0 290.6 100.9">
  <defs>
    <style>
      .cls-1 {
        stroke-width: .5px;
      }

      .cls-1, .cls-2, .cls-3 {
        fill: #fff;
      }

      .cls-1, .cls-2, .cls-4 {
        stroke: #fff;
        stroke-miterlimit: 10;
      }

      .cls-2 {
        stroke-width: .2px;
      }

      .cls-4 {
        fill: none;
        stroke-width: 1.7px;
      }
    </style>
  </defs>
  <!-- Generator: Adobe Illustrator 28.7.2, SVG Export Plug-In . SVG Version: 1.2.0 Build 154)  -->
  <g>
    <g id="_レイヤー_1" data-name="レイヤー_1">
      <g>
        <path class="cls-1" d="M58.7,4c0,0,0,.1-.2.1h-2.1v.5c0,.6,0,1.3,0,2.2h0c0,.2-.2.3-.3.3s-.2,0-.2-.3h0c0-.1,0-.3,0-.4h-1.6v.4c0,.2-.2.3-.3.3s-.2,0-.2-.3h0c0-.8,0-1.9,0-2.9h-.9c-.2,0-.5,0-.8,0,0,.5,0,1,0,1.5,0,.8,0,1.6,0,2.7h4.2c0,0,.1,0,.2,0,.4-.5.4-.6.5-.6s0,0,0,0c.3.1.8.6.8.8s0,.1-.2.1h-5.6v.4s0,0,0,0c0,.2-.2.3-.3.3s-.2,0-.2-.3h0c0-1.5,0-3.4,0-4.8-.5,0-1.1,0-1.6,0h0c-.2,0-.4-.4-.4-.5h0c.6,0,1.3.1,2,.1,0-.2,0-.5,0-.7,0-.4,0-1.2,0-1.6,0,0,0,0,0,0s0,0,0,0c.1,0,1,.1,1,.3s0,.1-.1.2c-.2.2-.3,0-.3.5v1.3c.3,0,.6,0,.8,0h.8v-1.1c0-.4,0-1.2,0-1.5,0,0,0,0,0,0s0,0,0,0c0,0,1,0,1,.3s0,.1-.1.2c-.2.2-.3,0-.3.5v1.7s1.6,0,1.6,0v-1c0-.4,0-1.2,0-1.5,0,0,0,0,0,0s0,0,0,0,1,.1,1,.3,0,.1-.1.2c-.2.1-.3,0-.3.5v1.6s.7,0,.7,0c0,0,.1,0,.2,0,0,0,.4-.5.5-.5s0,0,0,0c.3.1.8.6.8.7ZM54.4,4.2v.6c0,.4,0,1,0,1.6h1.6c0-.7,0-1.4,0-2.2h-1.6Z"/>
        <path class="cls-1" d="M72.3,2.2c0,.1-.1.2-.3.3-.2,0-.2,0-.2.3,0,.2,0,.7,0,1.2,0,1.4,0,3.6,0,4.7h0c0,.2-.2.4-.3.4s-.2,0-.2-.2h0s0-.5,0-.5h-5.4c0,.2,0,.3,0,.5s-.2.3-.4.3-.2,0-.2-.3h0c0-1.1,0-2.2,0-3.3s0-1.5,0-2.3c0-.2,0-1.2-.1-1.6,0,0,0,0,0,0s0,0,0,0c0,0,.6.2.9.4h0s4.9,0,4.9,0c0,0,0,0,.1,0,0,0,.2-.3.4-.3s.8.4.8.6ZM68.3,3.6c0-1.1,0-1.3,0-1.4h-2.2c-.2.2-.2.2-.2.6v2.1h2.4v-1.3ZM65.9,5.1v2.9h2.4c0-.4,0-1.8,0-2.9h-2.4ZM71.3,2.3s0-.1-.1-.1h-2.2s0,0,0,0c0,0,0,.1-.1.1,0,0,0,0,0,.2v2.3h2.5c0-1,0-2,0-2.5ZM68.8,5.1v2.9h2.5c0-1,0-2,0-2.9h-2.5Z"/>
        <path class="cls-1" d="M87.6,6c0,0-.6.2-.9.5,0,0,0,0-.1,0-.3,0-2.3-1.1-3.7-2.9h0c-.6.8-1.2,1.4-1.9,1.9.1,0,.4.2.6.3h0s2.5,0,2.5,0c0,0,.1,0,.1,0,.1-.1.2-.2.2-.2,0,0,.7.5.7.7s0,.1-.1.1q-.2.1-.2.8c0,.5,0,1.1,0,1.6h0c0,.2-.2.3-.3.3s-.2,0-.2-.2v-.3h-3.1v.4c0,.1-.2.2-.3.2s-.2,0-.2-.2h0c0-.9,0-1.8,0-2.3s0-.7,0-1.1c-1.3,1-2.2,1.2-2.4,1.2s0,0,0,0c0,0,0,0,.1,0,1.2-.6,2.6-1.6,3.9-3.3.1-.2.2-.4.3-.5,0,0,0,0,0,0s0,0,0,0c0,0,.5.3.6.5,0,0,0,0,0,0,0,0,0,.1-.3.1s0,0-.1,0c.6.8,3,2.5,4.5,2.5,0,0,.1,0,.1,0ZM82,1.7c0,0,0,.1-.2.1h0s0,0,0,0c0,0,0,0-.2.1-1.4,1.3-2.4,1.7-2.5,1.7s0,0,0,0c0,0,0,0,.1-.1.7-.4,2.2-1.7,2.2-2.3,0,0,0,0,0,0s.7.4.7.6ZM84.4,7.1c0-.8,0-.9-.1-.9h-2.8c-.2.2-.2,0-.2.5,0,.2,0,.4,0,.8s0,.6,0,1h3.1c0-.4,0-.9,0-1.3ZM86.1,2.9c0,.2-.1.3-.3.3s-.3,0-.4-.3c-.3-.5-1-1.1-1.7-1.6,0,0,0,0,0,0,0,0,0,0,0,0,0,0,2.3.8,2.3,1.6Z"/>
        <path class="cls-1" d="M95.5,5.6c0,0,0,0-.2,0s-.1,0-.2.1c-.8,1.1-2.3,1.9-2.4,1.9s0,0,0,0,0,0,.1-.1c.7-.5,1.9-1.9,2-2.4,0,0,0,0,0,0,0,0,.7.4.7.5ZM101.3,4.2c0,0,0,.1-.2.1h-2.8.1c0,0,.1,0,.1.1s0,0,0,0c-.2,0-.2,0-.2.4,0,.4,0,1,0,1.6s0,.9,0,1.2c0,.1,0,.4,0,.6,0,.8-.9,1-1,1s-.1,0-.2-.1c0-.1-1-.5-1-.6s0,0,0,0,0,0,.1,0c.4,0,.7.1,1,.1.4,0,.6-.1.6-.4,0-.5,0-1,0-1.5,0-1.7,0-2.3,0-2.5h-1c0,0,.2,0,.2.1s0,0-.1.1c-.1,0-.2,0-.2.5,0,4.1-3.5,4.3-3.5,4.3,0,0,0,0,0,0,0,0,.1,0,.3-.1,2.5-.9,2.9-2.8,2.9-4.3s0-.5,0-.6h-.1c-.5,0-1.6,0-2.5.1h0c-.2,0-.5-.4-.5-.5,1,.1,2.4.2,3,.2h.9c0-.1,0-.3,0-.4,0-.3,0-.6,0-.8h-.2c-.5,0-1.4,0-2.3.1h0c-.2,0-.5-.4-.5-.5,1,.1,2.3.1,2.8.1h.1v-.4c0-.4,0-.8-.1-1.2,0,0,0,0,0,0s0,0,0,0c0,0,1,0,1,.3s0,.1-.1.2c-.3.2-.3.1-.3.6v.6h1.4c0,0,.1,0,.2,0,.1-.2.4-.5.5-.5s0,0,0,0c.3.1.8.6.8.7s0,.1-.2.1h-2.7c0,.5,0,1,0,1.2h2.4c0,0,.1,0,.2,0,.1-.2.4-.5.5-.5s0,0,.1,0c.3.1.8.5.8.7ZM101.2,7.1c0,.2,0,.3-.2.3s-.2,0-.4-.3c-.3-.6-1.2-1.2-1.8-1.7,0,0,0,0,0,0s0,0,0,0c0,0,2.4.8,2.4,1.7Z"/>
        <path class="cls-1" d="M107.8,7.3c0,0,0,.1-.1.1-.1,0-.5-.5-.5-.6s0,0,0,0c.3,0,.5,0,1.5-.4,0-.6,0-1.9,0-2.9-.4,0-.7,0-1,0h0c-.2,0-.4-.3-.4-.5h0c.7,0,1.1.1,1.4.1v-.8c0-.4,0-.9-.1-1.5h0s0,0,0,0c0,0,1,.2,1,.4s-.1.2-.2.2c-.2,0-.2.2-.2,1.7h.3c0,0,0,0,.1,0,.3-.4.3-.5.4-.5s0,0,0,0c.4.2.6.6.6.6s0,.1-.2.1h-1.3c0,1,0,2.1,0,2.7.5-.2.9-.4,1.3-.6,0,0,0,0,0,0s0,0,0,0c0,.1-1.8,1.2-2.7,1.6ZM112.3,7.5c0-1.5,0-2.2,0-2.5-.5,0-1.4,0-2.1,0h0c-.2,0-.4-.3-.4-.4.9.1,2.1.1,2.6.1h2.1s0,0,.1,0c0,0,.3-.5.4-.5s.7.5.7.7,0,0-.2,0h-2.6c.2,0,.2,0,.2.2s0,.1-.1.2c-.2,0-.2.1-.2.4s0,.4,0,.7h1s0,0,.1,0c0-.2.3-.5.4-.5.2,0,.8.5.8.7s0,.1-.2.1h-2.1c0,.5,0,1.2,0,1.7.5.1,1,.1,1.2.1.6,0,1.3-.1,2-.3,0,0,.1,0,.1,0s0,0,0,0c0,0-.6.4-.8.7,0,0,0,.1-.1.1,0,0-.4,0-.8,0-1.4,0-2.7-.2-3.3-2.3-.5,1.4-1.1,2.1-2.3,2.6-.1,0-.2,0-.2,0s0,0,0,0c0,0,0,0,.2-.1,1.9-1,2.1-3.2,2.1-3.6h0c0-.1,0-.1,0-.1,0,0,0,0,.1,0,.1,0,.4,0,.6.2,0,0,0,0,0,0,0,0,0,.1-.2.2,0,0,0,0-.1,0,0,0,0,0,0,.3v.3c.1.7.5,1.3,1.1,1.7v-.6ZM111.6,4.1c0,.1-.2.2-.3.2s-.2,0-.2-.2h0c0-.6,0-1.1,0-1.4s0-1.2-.1-1.7c0,0,0,0,0,0,0,0,0,0,0,0,.1,0,.6.2.7.3h0s1.7,0,1.7,0c0,0,0,0,.1,0,0,0,.1-.2.2-.2,0,0,0,0,0,0,0,0,.7.3.7.5s-.1.2-.2.2c-.1,0-.2.1-.2.6s0,1,0,1.6h0c0,.2-.2.3-.3.3s-.2,0-.2-.2v-.2h-2.1v.3ZM111.5,3.6h2.1c0-.4,0-.7,0-1h-2.1c0,.3,0,.6,0,1ZM111.5,2.1v.3h2.1c0-.8,0-.8-.1-.8h-1.8c-.2.2-.2,0-.2.5Z"/>
        <path class="cls-1" d="M128.2,3.9c0,.1-.2.2-.3.3,0,0,0,.1-.1.2-.2.6-.4,1.7-.5,2.2.4,0,.7.2.7.4s0,.2-.2.2,0,0-.1,0c-.2,0-.5,0-.9,0-.8,0-1.7.1-2.5.3-.2,0-.4,0-.6,0-.6,0-1.1-.5-1.1-.6s0,0,0,0c0,0,.2,0,.2.1.1,0,.3,0,.5,0s.4,0,.6,0c.9,0,1.9-.2,2.9-.3.1-.7.4-2.4.4-2.4,0-.2,0-.3-.2-.3-.6,0-1.9.2-2.9.5-.2,0-.3,0-.5,0-.3,0-1-.3-1-.6s0,0,0,0,0,0,.2,0c0,0,.2,0,.4,0,.2,0,.5,0,.7,0,1.2-.1,1.4-.2,2.6-.3.4,0,.4-.2.6-.2s.9.3.9.5Z"/>
        <path class="cls-1" d="M140,5.2c-.5,0-1.5,0-2.5,0-.5,0-.9,0-1.2.2-.2,0-.3,0-.5,0-.4,0-1-.5-1-.8s0,0,0,0,0,0,.2.1c.2.1.5.1.7.1s2.7-.1,3.8-.2c0,0,.2,0,.4,0,.2,0,.6,0,.6.2s-.2.3-.5.3Z"/>
        <path class="cls-1" d="M148.3,5.6c0,1-1.2,1.8-1.6,1.8s-.3,0-.3-.2,0-.2.3-.4c.8-.4,1.2-.8,1.4-1.4,0,0,0-.1,0-.1,0,0,0,.2,0,.2ZM152.8,4.1c0,0-.1.2-.3.2s-.1,0-.2,0c-.3,0-.7,0-1,0s-.6,0-.9,0c0,0-.2,0-.3,0,0,.4,0,1,0,1.5v.5c0,.5,0,.8,0,1.1,0,.7-.2.9-.4.9s-.2-.1-.3-.4c0-.4-.4-.9-.8-1.4,0,0,0,0,0,0s0,0,0,0c0,0,0,0,0,0,.2.1.6.5.8.6,0,0,0,0,0,0,0,0,0,0,0-.1,0-.9,0-1.7,0-2.5-.3,0-.6,0-.8.1-.4,0-.5.2-.8.2s-1.2-.2-1.2-.6,0-.1,0-.1.2,0,.2,0c.4.1.7.2,1,.2s1.3-.1,1.5-.1v-.7h0c0-.6-.1-.9-.6-.9s0,0-.1,0-.1,0-.1-.1,0-.2.3-.2,1,.2,1,.6,0,.3-.1.6c0,.1,0,.3,0,.6.3,0,.6,0,.8-.1.5,0,.5-.2.8-.2s1.1.2,1.1.4ZM153.2,6.8c0,.2-.1.4-.3.4s-.2,0-.3-.2c-.4-.6-1-1.2-1.6-1.5-.1,0-.2,0-.2-.1s0,0,0,0c.4,0,2.3.8,2.3,1.5ZM152.5,3.4c-.5,0-.9-.4-.9-.9s.4-.9.9-.9.9.4.9.9-.4.9-.9.9ZM152.5,2c-.3,0-.6.2-.6.6s.3.6.6.6.6-.3.6-.6-.2-.6-.6-.6Z"/>
        <path class="cls-1" d="M165.6,3.9c0,0,0,.1-.1.2-.2.1-.3,0-.5.4-1.4,2.5-3,3.7-4.8,4.2,0,0-.1,0-.2,0s0,0,0,0c0,0,0,0,.2-.1,1.3-.6,3-1.8,4.4-4.4,0,0,0,0,0-.1,0-.1-.1-.2-.3-.2s-1.4.2-2,.4c-.5.1-.7.3-.9.3-.4,0-1.2-.4-1.2-.6s0-.1.1-.1.1,0,.2,0c0,.1.4.2.7.2s.5,0,.7,0c.4,0,1.5-.2,2.1-.3.3,0,.4-.2.6-.2s1,.2,1,.5ZM164.7,2.2c0,.1-.1.2-.3.2-.7,0-1.5.2-2.3.3,0,0-.2,0-.3,0-.5,0-.8-.3-.8-.5s0,0,0,0,0,0,0,0c.2.1.4.2.7.2.4,0,.9-.1,1.3-.2.3,0,.5-.3.9-.3s.6,0,.6.3Z"/>
        <path class="cls-1" d="M178.4,4.1c0,.1-.1.2-.3.2s0,0-.1,0c-.4,0-.8-.1-1.3-.1s-.6,0-1.2,0c.4,0,.5.2.5.5s0,.2,0,.2c-.6,3.3-3.8,4.1-4,4.1s0,0,0,0c0,0,.1-.1.2-.2,1.8-.8,3.2-2.9,3.2-4s0-.5-.3-.5,0,0,0,0c0,0,0,0,0,0,0,0,0,0,0,0,0,0,0,0,0,0-.5,0-.9.2-1.3.3-.2,0-.3.1-.5.1-.4,0-1.2-.3-1.2-.6s0,0,0,0,.1,0,.2,0c.2.1.6.2.9.2s.2,0,.3,0c.9-.1,2-.4,3.2-.5.3,0,.5-.2.8-.2s1.1.2,1.1.5ZM174.4,2.8c-.1,0-.2,0-.3,0-.7,0-.9-.4-.9-.5s0,0,0,0,0,0,0,0c.2.1.4.2.7.2s.6,0,1.6-.2c.2,0,.4-.2.7-.2s.7.2.7.3-.1.2-.4.2c-.7,0-1.7.2-2.3.3Z"/>
        <path class="cls-1" d="M186.8,4.7c0,0-.1.1-.2.2-.1.2-.3.5-.5.7.2,0,.3.3.3.4s0,0,0,.1c0,0,0,.3,0,.5v.8c0,.4,0,.7,0,.7h0c0,.2,0,.7-.3.7s-.3,0-.3-.6,0-.2,0-.3c0-.2,0-.3,0-.4,0-.5,0-.9,0-1.3s0-.3,0-.4c-1.2,1.3-2.4,1.8-2.6,1.8s0,0,0,0c0,0,0,0,.2-.1,1.4-.7,2.9-2.7,2.9-3.1s0-.1-.2-.2c0,0,0,0,0,0,0,0,0-.2.3-.2.3,0,.8.3.8.5s-.1.3-.2.3Z"/>
        <path class="cls-1" d="M199.4,3.2c0,0,0,.1-.1.2-.2.1-.3.2-.5.5-1.2,2.2-2.8,4-4.9,4.6,0,0-.1,0-.2,0,0,0,0,0,0,0,0,0,0,0,.2-.2,2.7-1.1,4.5-4.7,4.5-4.9s-.1-.2-.3-.2-1.3.2-2.2.5c-.4.1-.6.2-.8.2-.4,0-1.2-.5-1.2-.7s0-.2.2-.2,0,0,.1,0c0,.2.4.2.8.2s.4,0,.6,0c.5,0,1.7-.3,2.2-.3.3,0,.4-.3.6-.3s1.1.3,1.1.6ZM199.9,2.6c0,.2-.1.3-.2.3s-.2,0-.2-.1c-.3-.3-.6-.5-.9-.7,0,0-.1,0-.1,0,0,0,.2,0,.2,0,.2,0,1.2,0,1.2.6ZM201,2.1c0,.1-.1.2-.2.2s-.2,0-.2-.1c-.3-.3-.6-.5-.9-.6,0,0-.1,0-.1,0s0,0,.3,0c.4,0,1.2.1,1.2.6Z"/>
        <path class="cls-1" d="M205.6,7.5c0,0,0,0,0,0s0,0,.1,0c1.6-.4,3.3-2.2,3.3-2.9s-.3-.5-.5-.5c0,0,0,0,0,0,0,0,.1-.2.3-.2s.8.3.8.8-.2.5-.3.6c-1.4,2.1-3.5,2.4-3.7,2.4ZM213.5,6.3c0,.3-.1.4-.3.4s-.3-.1-.4-.4c-.3-.9-1.2-1.8-1.8-2.5-.1-.1-.2-.2-.2-.3s0,0,0,0c.3,0,2.7,1.6,2.7,2.7Z"/>
        <path class="cls-1" d="M225.5,4.4c-1.1,2.3-2.4,3.7-4.5,4.3-.1,0-.2,0-.3,0s0,0,0,0c0,0,0-.1.2-.2,1.8-.8,3.1-2.4,4-4.5,0,0,0-.2,0-.2,0-.1-.1-.2-.3-.2-.5,0-2.4.2-2.9.4-.1,0-.2,0-.3,0s0,0-.1,0c0,0,0,.1,0,.2.2,1.1.3,1.4.3,1.6s0,.4-.2.4-.3-.4-.3-.7,0-.2,0-.4c0-.3-.2-.9-.2-.9-.2-.5-.5-.8-1-.8h0s-.1,0-.1,0c0-.1.2-.3.5-.3s.8.1,1,.6h0c.2,0,.4,0,1.5-.1,0-.2,0-.4,0-.7,0-.6-.3-.8-.7-.8-.1,0-.2,0-.2,0s.1-.2.4-.2,1,.2,1,.5-.2.4-.2.7c0,.2,0,.4,0,.6.5,0,1-.1,1.1-.1.3,0,.4-.2.6-.2s1,.3,1,.6,0,.1-.1.2c-.2.1-.3.1-.5.4Z"/>
        <path class="cls-1" d="M238.9,7.6c0,.2-.1.3-.3.3s-.2,0-.4-.2c-.4-.6-1.3-1.4-2-1.8,0,0-.1,0-.2-.1-2.1,2.3-4.3,2.6-4.3,2.6s0,0,0,0c0,0,.1-.1.3-.2,2.9-1.2,4.9-4.2,4.9-4.6s0-.2-.2-.2c-.3,0-1.3.4-1.7.5-.3.1-.5.2-.6.2-.3,0-1-.3-1-.6s0-.2.1-.2,0,0,.1,0c0,.1.2.1.5.1s.4,0,.7,0c.3,0,1.2-.2,1.5-.3.3,0,.4-.3.6-.3s1,.2,1,.6,0,.1,0,.2c-.2.1-.3.2-.5.5-.4.6-.7,1.1-1.1,1.6.4,0,2.7,1.2,2.7,1.9Z"/>
      </g>
      <g>
        <g>
          <path class="cls-3" d="M1.2,62.8l-.3-1.7c1.1,1.1,2.7,1.8,4.1,1.8s2.5-.8,2.5-2.2-1.1-2-2.7-2.8c-1.9-.9-3.4-1.7-3.4-3.6s1.6-3.2,3.8-3.2,2,.2,2.7.7l.3,1.6c-1-.8-2.1-1.2-3.1-1.2-1.6,0-2.5.9-2.5,2s1.5,2,2.9,2.7c1.8.9,3.2,1.8,3.2,3.7s-1.7,3.4-3.9,3.4-2.5-.3-3.7-1.2Z"/>
          <path class="cls-3" d="M20,51.3h6.9l.2,1.1h-5.8v4.5h5.2v1.1h-5.2v4.7h6.1l-.2,1.1h-7.1v-12.6Z"/>
          <path class="cls-3" d="M41.1,52.4h-4.2v-1.1h9.6v1.1h-4.2v11.5h-1.2v-11.5Z"/>
          <path class="cls-3" d="M60.9,51.2h.6l5.3,12.7h-1.3l-1.6-3.8h-5.5l-1.6,3.8h-1.3l5.4-12.7ZM63.5,58.9l-2.3-5.4h0l-2.3,5.4h4.6Z"/>
          <path class="cls-3" d="M76.4,57.6c0-3.6,2.7-6.5,6.6-6.5s2.8.4,3.7.9l.3,1.6c-1.1-.9-2.4-1.4-4-1.4-2.8,0-5.4,2-5.4,5.3s2.3,5.3,5.4,5.3,2-.2,3-.7v-3.3h-3.3l.4-1.1h4.1v5.2c-1.1.6-2.6,1.1-4.2,1.1-4,0-6.6-3-6.6-6.5Z"/>
          <path class="cls-3" d="M102.4,51.2h.6l5.3,12.7h-1.3l-1.6-3.8h-5.5l-1.6,3.8h-1.3l5.4-12.7ZM105,58.9l-2.3-5.4h0l-2.3,5.4h4.6Z"/>
          <path class="cls-3" d="M121.9,58.6l-4.6-7.3h1.5l3.8,6.1,3.8-6.1h1.4l-4.6,7.3v5.3h-1.2v-5.3Z"/>
          <path class="cls-3" d="M142,51.2h.6l5.3,12.7h-1.3l-1.6-3.8h-5.5l-1.6,3.8h-1.3l5.4-12.7ZM144.5,58.9l-2.3-5.4h0l-2.3,5.4h4.6Z"/>
        </g>
        <g>
          <path class="cls-2" d="M5.7,71.5h.9l5.6,12.7h-2.3l-1.2-3H3.6l-1.2,3H0l5.6-12.7ZM7.9,79.3l-1.7-4.2h0l-1.7,4.2h3.5Z"/>
          <path class="cls-2" d="M22.1,71.6h2.2v5.8l5.1-5.8h2.7l-4.7,5.2,5.1,7.3h-2.6l-4-5.8-1.6,1.8v4h-2.2v-12.6Z"/>
          <path class="cls-2" d="M46.4,71.5h.9l5.6,12.7h-2.3l-1.2-3h-5l-1.2,3h-2.3l5.6-12.7ZM48.6,79.3l-1.7-4.2h0l-1.7,4.2h3.5Z"/>
          <path class="cls-2" d="M65.6,73.6h-4v-2h10.1v2h-3.9v10.6h-2.2v-10.6Z"/>
          <path class="cls-2" d="M81.6,83.2l-.2-2.5c1.1,1.1,2.8,1.7,4.1,1.7s2.1-.6,2.1-1.6-1.1-1.5-2.4-2c-2.1-.9-3.4-1.8-3.4-3.8s1.6-3.6,4.2-3.6,2.1.2,3,.6l.3,2.5c-1.1-.8-2.3-1.1-3.3-1.1s-1.9.7-1.9,1.4,1.3,1.5,2.6,2.1c1.7.7,3.3,1.6,3.3,3.7s-1.9,3.7-4.3,3.7-2.6-.4-3.8-1.2Z"/>
          <path class="cls-2" d="M100.2,79v-7.4h2.2v7.4c0,2.3,1.3,3.4,3.1,3.4s3.1-1.1,3.1-3.4v-7.4h2.2v7.4c0,3.4-2.3,5.3-5.3,5.3s-5.3-2-5.3-5.4Z"/>
          <path class="cls-2" d="M124.9,73.6h-4v-2h10.1v2h-3.9v10.6h-2.2v-10.6Z"/>
          <path class="cls-2" d="M140.9,83.2l-.2-2.5c1.1,1.1,2.8,1.7,4.1,1.7s2.1-.6,2.1-1.6-1.1-1.5-2.4-2c-2.1-.9-3.4-1.8-3.4-3.8s1.6-3.6,4.2-3.6,2.1.2,3,.6l.3,2.5c-1.1-.8-2.3-1.1-3.3-1.1s-1.9.7-1.9,1.4,1.3,1.5,2.6,2.1c1.7.7,3.3,1.6,3.3,3.7s-1.9,3.7-4.3,3.7-2.6-.4-3.8-1.2Z"/>
          <path class="cls-2" d="M159.5,79v-7.4h2.2v7.4c0,2.3,1.3,3.4,3.1,3.4s3.1-1.1,3.1-3.4v-7.4h2.2v7.4c0,3.4-2.3,5.3-5.3,5.3s-5.3-2-5.3-5.4Z"/>
          <path class="cls-2" d="M181.4,71.5h.9l5.3,6.3h0l5.1-6.3h.9v12.7h-2.2v-8.1l-3.7,4.5h-.3l-3.9-4.5v8.1h-2.2v-12.7Z"/>
          <path class="cls-2" d="M205.2,71.6h2.2v12.6h-2.2v-12.6Z"/>
        </g>
        <g>
          <path class="cls-3" d="M.5,95.3c0-1.8,1.3-3.1,3.1-3.1s1.2.2,1.6.4v1c-.4-.4-.9-.6-1.6-.6-1.3,0-2.2,1-2.2,2.3s.9,2.4,2.2,2.4,1.3-.2,1.8-.6l-.2,1c-.5.3-1,.4-1.7.4-1.9,0-3.1-1.4-3.1-3.1Z"/>
          <path class="cls-3" d="M10.5,95.3c0-1.8,1.4-3.1,3.1-3.1s3.1,1.3,3.1,3.1-1.4,3.1-3.1,3.1-3.1-1.3-3.1-3.1ZM13.5,97.6c1.1,0,2.2-.9,2.2-2.3s-1-2.3-2.2-2.3-2.2.9-2.2,2.3,1.1,2.3,2.2,2.3Z"/>
          <path class="cls-3" d="M21.7,95.3c0-1.8,1.4-3.1,3.1-3.1s3.1,1.3,3.1,3.1-1.4,3.1-3.1,3.1-3.1-1.3-3.1-3.1ZM24.8,97.6c1.1,0,2.2-.9,2.2-2.3s-1-2.3-2.2-2.3-2.2.9-2.2,2.3,1.1,2.3,2.2,2.3Z"/>
          <path class="cls-3" d="M33.4,92.2h1.8c1.3,0,2.1.9,2.1,2s-.8,2-2.1,2h-.9v2.1h-.9v-6.1ZM35.1,95.4c.8,0,1.3-.5,1.3-1.2s-.5-1.2-1.3-1.2h-.9v2.4h.9Z"/>
          <path class="cls-3" d="M42.7,92.2h3.4v.8c.1,0-2.6,0-2.6,0v1.8h2.4v.8h-2.4v1.9h2.8l-.2.8h-3.5v-6.1Z"/>
          <path class="cls-3" d="M51.9,92.2h1.8c1.3,0,2.1.8,2.1,1.8s-.5,1.4-1.2,1.7l1.9,2.6h-1.1l-1.8-2.4h-1v2.4h-.9v-6.1ZM53.7,95.2c.8,0,1.2-.4,1.2-1.1s-.5-1.1-1.2-1.1h-.9v2.2h.9Z"/>
          <path class="cls-3" d="M63.5,92.2h.4l2.7,6.1h-.9l-.7-1.6h-2.5l-.7,1.6h-.9l2.7-6.1ZM64.6,96l-.9-2.3h0l-.9,2.3h1.9Z"/>
          <path class="cls-3" d="M73,93h-2v-.8h4.8v.8h-2v5.3h-.9v-5.3Z"/>
          <path class="cls-3" d="M81.1,92.2h.9v6.1h-.9v-6.1Z"/>
          <path class="cls-3" d="M88,92.2l1.9,4.6h0l1.9-4.6h.9l-2.7,6.1h-.3l-2.7-6.1h1Z"/>
          <path class="cls-3" d="M97.9,92.2h3.4v.8c.1,0-2.6,0-2.6,0v1.8h2.4v.8h-2.4v1.9h2.8l-.2.8h-3.5v-6.1Z"/>
          <path class="cls-3" d="M117.5,95.7h-3.2v2.6h-.9v-6.1h.9v2.7h3.2v-2.7h.9v6.1h-.9v-2.6Z"/>
          <path class="cls-3" d="M123.9,95.3c0-1.8,1.4-3.1,3.1-3.1s3.1,1.3,3.1,3.1-1.4,3.1-3.1,3.1-3.1-1.3-3.1-3.1ZM127,97.6c1.1,0,2.2-.9,2.2-2.3s-1-2.3-2.2-2.3-2.2.9-2.2,2.3,1.1,2.3,2.2,2.3Z"/>
          <path class="cls-3" d="M135.5,95.9v-3.6h.9v3.6c0,1.2.6,1.8,1.6,1.8s1.6-.6,1.6-1.8v-3.6h.9v3.6c0,1.5-1,2.6-2.5,2.6s-2.5-1-2.5-2.6Z"/>
          <path class="cls-3" d="M146,97.8v-1.1c.4.5,1.2.8,1.9.8s1.1-.4,1.1-.9-.5-.8-1.2-1.1c-1-.4-1.7-.8-1.7-1.8s.8-1.7,2-1.7,1,.1,1.4.3v1c-.4-.4-1-.6-1.4-.6s-1,.4-1,.8.7.8,1.3,1.1c.9.4,1.6.8,1.6,1.8s-.9,1.7-2,1.7-1.2-.2-1.8-.6Z"/>
          <path class="cls-3" d="M155.3,92.2h3.4v.8c.1,0-2.6,0-2.6,0v1.8h2.4v.8h-2.4v1.9h2.8l-.2.8h-3.5v-6.1Z"/>
        </g>
        <g>
          <rect class="cls-4" x="253.5" y="24" width="36.3" height="71.6"/>
          <line class="cls-4" x1="253.5" y1="52.3" x2="289.8" y2="52.3"/>
          <path class="cls-4" d="M253.3,24h0c0,0,.1,0,.1.1v28.1c0,0,0,.1-.1.1h-28.1c0,0-.1,0-.1-.1h0c0-15.6,12.6-28.2,28.2-28.2Z"/>
        </g>
        <polyline class="cls-4" points="4.1 42.4 4.1 24 289.8 24 289.8 95.5 170.8 95.5"/>
        <line class="cls-4" x1="253.5" y1="95.5" x2="289.8" y2="52.3"/>
      </g>
    </g>
  </g>
</svg>