<?xml version="1.0" encoding="UTF-8"?>
<svg id="_レイヤー_2" data-name="レイヤー 2" xmlns="http://www.w3.org/2000/svg" xmlns:xlink="http://www.w3.org/1999/xlink" viewBox="0 0 274.47 70.86">
  <defs>
    <style>
      .cls-1 {
        fill: #60492a;
      }

      .cls-2 {
        filter: url(#outer-glow-1);
      }
    </style>
    <filter id="outer-glow-1" x="0" y="0" width="274.47" height="70.86" filterUnits="userSpaceOnUse">
      <feOffset dx="0" dy="0"/>
      <feGaussianBlur result="blur" stdDeviation="26"/>
      <feFlood flood-color="#000" flood-opacity=".5"/>
      <feComposite in2="blur" operator="in"/>
      <feComposite in="SourceGraphic"/>
    </filter>
  </defs>
  <g id="header">
    <g class="cls-2">
      <g>
        <g>
          <path class="cls-1" d="M1.17,37.18l-.28-1.63c1.02,1.07,2.56,1.66,3.89,1.66,1.42,0,2.4-.79,2.4-2.07,0-1.35-1.07-1.91-2.54-2.61-1.75-.84-3.22-1.59-3.22-3.43s1.47-3.01,3.63-3.01c.89,0,1.89.23,2.59.68l.26,1.52c-.95-.79-2.03-1.1-2.92-1.1-1.54,0-2.35.88-2.35,1.87,0,1.33,1.44,1.89,2.75,2.52,1.68.81,3.01,1.68,3.01,3.48,0,2.01-1.65,3.24-3.68,3.24-1.17,0-2.38-.26-3.54-1.14Z"/>
          <path class="cls-1" d="M18.94,26.27h6.5l.21,1.07h-5.53v4.27h4.96v1.05h-4.96v4.45h5.73l-.23,1.07h-6.67v-11.91Z"/>
          <path class="cls-1" d="M38.9,27.33h-3.96v-1.07h9.09v1.07h-3.96v10.84h-1.17v-10.84Z"/>
          <path class="cls-1" d="M57.6,26.18h.53l5.06,12h-1.23l-1.51-3.63h-5.2l-1.52,3.63h-1.21l5.08-12ZM60,33.48l-2.14-5.11h-.02l-2.15,5.11h4.31Z"/>
          <path class="cls-1" d="M72.25,32.22c0-3.41,2.57-6.13,6.27-6.13,1.49,0,2.63.33,3.52.86l.26,1.51c-1.07-.84-2.28-1.3-3.75-1.3-2.68,0-5.1,1.87-5.1,5.06,0,2.94,2.14,5.06,5.11,5.06.95,0,1.93-.19,2.8-.63v-3.12h-3.08l.33-1.07h3.89v4.89c-1.07.61-2.47,1-4.01,1-3.78,0-6.25-2.82-6.25-6.13Z"/>
          <path class="cls-1" d="M96.86,26.18h.53l5.06,12h-1.23l-1.51-3.63h-5.2l-1.52,3.63h-1.21l5.08-12ZM99.26,33.48l-2.14-5.11h-.02l-2.15,5.11h4.31Z"/>
          <path class="cls-1" d="M115.24,33.17l-4.36-6.9h1.38l3.59,5.76,3.59-5.76h1.33l-4.36,6.88v5.03h-1.17v-5.01Z"/>
          <path class="cls-1" d="M134.27,26.18h.53l5.06,12h-1.23l-1.51-3.63h-5.2l-1.52,3.63h-1.21l5.08-12ZM136.67,33.48l-2.14-5.11h-.02l-2.15,5.11h4.31Z"/>
        </g>
        <g>
          <g>
            <path class="cls-1" d="M5.37,45.37h.86l5.31,12h-2.19l-1.16-2.8H3.43l-1.16,2.8H.08l5.29-12ZM7.45,52.79l-1.63-3.94h-.03l-1.63,3.94h3.29Z"/>
            <path class="cls-1" d="M11.62,57.41h-2.31v-.03s-1.16-2.77-1.16-2.77H3.46l-1.16,2.8H0l.03-.07,5.3-12.03h.93l5.35,12.1ZM9.38,57.31h2.07l-5.26-11.89h-.79L.16,57.31h2.07l1.16-2.8h4.83v.03s1.16,2.77,1.16,2.77ZM7.53,52.84h-3.45l1.67-4.05h.11v.03s1.67,4.01,1.67,4.01ZM4.24,52.74h3.13l-1.57-3.79-1.57,3.79Z"/>
          </g>
          <g>
            <path class="cls-1" d="M20.9,45.45h2.1v5.45l4.78-5.45h2.57l-4.45,4.96,4.83,6.95h-2.43l-3.8-5.48-1.51,1.66v3.82h-2.1v-11.91Z"/>
            <path class="cls-1" d="M30.84,57.41h-2.56l-.02-.02-3.76-5.43-1.45,1.6v3.85h-2.21v-12.01h2.21v5.36l4.7-5.36h2.72l-4.5,5.01,4.87,7ZM28.34,57.31h2.31l-4.8-6.9.03-.03,4.37-4.87h-2.43l-4.86,5.53v-5.53h-2v11.8h2v-3.78l1.56-1.73,3.82,5.51Z"/>
          </g>
          <g>
            <path class="cls-1" d="M43.86,45.37h.86l5.31,12h-2.19l-1.16-2.8h-4.76l-1.16,2.8h-2.19l5.29-12ZM45.94,52.79l-1.63-3.94h-.03l-1.63,3.94h3.29Z"/>
            <path class="cls-1" d="M50.1,57.41h-2.31v-.03s-1.16-2.77-1.16-2.77h-4.69l-1.16,2.8h-2.31l.03-.07,5.3-12.03h.93l5.35,12.1ZM47.87,57.31h2.07l-5.26-11.89h-.79l-5.24,11.89h2.07l1.16-2.8h4.83v.03s1.16,2.77,1.16,2.77ZM46.02,52.84h-3.45l1.67-4.05h.11v.03s1.67,4.01,1.67,4.01ZM42.73,52.74h3.13l-1.57-3.79-1.57,3.79Z"/>
          </g>
          <g>
            <path class="cls-1" d="M62,47.33h-3.75v-1.87h9.58v1.87h-3.73v10.03h-2.1v-10.03Z"/>
            <path class="cls-1" d="M64.15,57.41h-2.21v-10.03h-3.75v-1.98h9.69v1.98h-3.73v10.03ZM62.05,57.31h2v-10.03h3.73v-1.77h-9.47v1.77h3.75v10.03Z"/>
          </g>
          <g>
            <path class="cls-1" d="M77.12,56.4l-.23-2.4c1.05,1.03,2.68,1.63,3.85,1.63s1.94-.61,1.94-1.51c0-1.02-1.07-1.38-2.31-1.93-1.94-.81-3.24-1.66-3.24-3.55s1.47-3.36,3.96-3.36c.89,0,2,.23,2.8.61l.28,2.35c-1.05-.74-2.17-1.09-3.15-1.09-1.16,0-1.8.63-1.8,1.37,0,1.03,1.19,1.42,2.45,1.94,1.63.68,3.08,1.54,3.08,3.54,0,2.24-1.79,3.5-4.05,3.5-1.28,0-2.49-.35-3.59-1.1Z"/>
            <path class="cls-1" d="M80.71,57.55c-1.32,0-2.54-.37-3.62-1.11h-.02s-.24-2.58-.24-2.58l.1.1c1.13,1.11,2.77,1.61,3.82,1.61,1.13,0,1.89-.58,1.89-1.45s-.87-1.27-1.98-1.75c-.1-.04-.2-.09-.3-.13-2.02-.84-3.27-1.73-3.27-3.6,0-2.07,1.57-3.42,4.01-3.42.93,0,2.04.24,2.82.62h.03s0,.04,0,.04l.29,2.46-.1-.07c-.99-.69-2.1-1.08-3.12-1.08s-1.75.54-1.75,1.31c0,.91.97,1.3,2.08,1.76.11.05.22.09.34.14,1.51.63,3.11,1.48,3.11,3.59s-1.65,3.56-4.1,3.56ZM77.17,56.37c1.06.72,2.25,1.08,3.54,1.08,2.39,0,3.99-1.39,3.99-3.45s-1.57-2.87-3.05-3.49c-.11-.05-.22-.09-.34-.14-1.15-.47-2.15-.88-2.15-1.85,0-.68.58-1.42,1.86-1.42,1.01,0,2.1.36,3.09,1.03l-.26-2.2c-.77-.36-1.85-.6-2.75-.6-2.37,0-3.9,1.3-3.9,3.31,0,1.82,1.18,2.66,3.21,3.51.1.05.21.09.3.13,1.09.47,2.04.88,2.04,1.84s-.8,1.56-2,1.56c-1.04,0-2.64-.48-3.79-1.55l.21,2.23Z"/>
          </g>
          <g>
            <path class="cls-1" d="M94.74,52.44v-6.99h2.1v6.97c0,2.21,1.23,3.24,2.89,3.24s2.91-1.05,2.91-3.22v-6.99h2.08v7c0,3.19-2.19,5.06-4.99,5.06s-4.99-1.87-4.99-5.08Z"/>
            <path class="cls-1" d="M99.73,57.57c-3.02,0-5.04-2.06-5.04-5.13v-7.04h2.21v7.02c0,2.03,1.03,3.19,2.84,3.19s2.85-1.21,2.85-3.17v-7.04h2.19v7.06c0,3.06-2.03,5.11-5.04,5.11ZM94.79,45.51v6.93c0,3.01,1.98,5.03,4.94,5.03s4.94-2.01,4.94-5.01v-6.95h-1.98v6.93c0,2.02-1.13,3.28-2.96,3.28s-2.94-1.23-2.94-3.29v-6.92h-2Z"/>
          </g>
          <g>
            <path class="cls-1" d="M118.06,47.33h-3.75v-1.87h9.58v1.87h-3.73v10.03h-2.1v-10.03Z"/>
            <path class="cls-1" d="M120.21,57.41h-2.21v-10.03h-3.75v-1.98h9.69v1.98h-3.73v10.03ZM118.11,57.31h2v-10.03h3.73v-1.77h-9.47v1.77h3.75v10.03Z"/>
          </g>
          <g>
            <path class="cls-1" d="M133.19,56.4l-.23-2.4c1.05,1.03,2.68,1.63,3.85,1.63s1.94-.61,1.94-1.51c0-1.02-1.07-1.38-2.31-1.93-1.94-.81-3.24-1.66-3.24-3.55s1.47-3.36,3.96-3.36c.89,0,2,.23,2.8.61l.28,2.35c-1.05-.74-2.17-1.09-3.15-1.09-1.16,0-1.8.63-1.8,1.37,0,1.03,1.19,1.42,2.45,1.94,1.63.68,3.08,1.54,3.08,3.54,0,2.24-1.79,3.5-4.05,3.5-1.28,0-2.49-.35-3.59-1.1Z"/>
            <path class="cls-1" d="M136.78,57.55c-1.32,0-2.54-.37-3.62-1.11h-.02s-.24-2.58-.24-2.58l.1.1c1.13,1.11,2.77,1.61,3.82,1.61,1.13,0,1.89-.58,1.89-1.45s-.87-1.27-1.98-1.75c-.1-.04-.2-.09-.3-.13-2.02-.84-3.27-1.73-3.27-3.6,0-2.07,1.57-3.42,4.01-3.42.93,0,2.04.24,2.82.62h.03s0,.04,0,.04l.29,2.46-.1-.07c-.99-.69-2.1-1.08-3.12-1.08s-1.75.54-1.75,1.31c0,.91.97,1.3,2.08,1.76.11.05.22.09.34.14,1.51.63,3.11,1.48,3.11,3.59s-1.65,3.56-4.1,3.56ZM133.24,56.37c1.06.72,2.25,1.08,3.54,1.08,2.39,0,3.99-1.39,3.99-3.45s-1.57-2.87-3.05-3.49c-.11-.05-.22-.09-.34-.14-1.15-.47-2.15-.88-2.15-1.85,0-.68.58-1.42,1.86-1.42,1.01,0,2.1.36,3.09,1.03l-.26-2.2c-.77-.36-1.85-.6-2.75-.6-2.37,0-3.9,1.3-3.9,3.31,0,1.82,1.18,2.66,3.21,3.51.1.05.21.09.3.13,1.09.47,2.04.88,2.04,1.84s-.8,1.56-2,1.56c-1.04,0-2.64-.48-3.79-1.55l.21,2.23Z"/>
          </g>
          <g>
            <path class="cls-1" d="M150.8,52.44v-6.99h2.1v6.97c0,2.21,1.23,3.24,2.89,3.24s2.91-1.05,2.91-3.22v-6.99h2.08v7c0,3.19-2.19,5.06-4.99,5.06s-4.99-1.87-4.99-5.08Z"/>
            <path class="cls-1" d="M155.79,57.57c-3.02,0-5.04-2.06-5.04-5.13v-7.04h2.21v7.02c0,2.03,1.03,3.19,2.84,3.19s2.85-1.21,2.85-3.17v-7.04h2.19v7.06c0,3.06-2.03,5.11-5.04,5.11ZM150.86,45.51v6.93c0,3.01,1.98,5.03,4.94,5.03s4.94-2.01,4.94-5.01v-6.95h-1.98v6.93c0,2.02-1.13,3.28-2.96,3.28s-2.94-1.23-2.94-3.29v-6.92h-2Z"/>
          </g>
          <g>
            <path class="cls-1" d="M171.52,45.35h.89l4.97,5.92h.03l4.83-5.92h.88v12.01h-2.08v-7.62l-3.54,4.24h-.3l-3.64-4.26v7.64h-2.05v-12.01Z"/>
            <path class="cls-1" d="M183.18,57.41h-2.19v-7.52l-3.46,4.14h-.35l-.02-.02-3.55-4.15v7.54h-2.16v-12.12h.97l.02.02,4.95,5.89,4.83-5.91h.95v12.12ZM181.1,57.31h1.98v-11.91h-.8l-4.83,5.92h-.08l-.02-.02-4.96-5.9h-.82v11.91h1.94v-7.73l3.72,4.35h.25l3.62-4.33v7.71Z"/>
          </g>
          <g>
            <path class="cls-1" d="M194.02,45.45h2.1v11.91h-2.1v-11.91Z"/>
            <path class="cls-1" d="M196.17,57.41h-2.21v-12.01h2.21v12.01ZM194.07,57.31h2v-11.8h-2v11.8Z"/>
          </g>
        </g>
        <g>
          <path class="cls-1" d="M.5,67.89c0-1.74,1.27-2.98,2.9-2.98.6,0,1.12.15,1.53.4l.11.96c-.48-.37-1-.6-1.6-.6-1.21,0-2.08.93-2.08,2.22s.84,2.23,2.11,2.23c.62,0,1.24-.22,1.72-.6l-.16.93c-.43.28-.96.42-1.57.42-1.77,0-2.96-1.3-2.96-2.96Z"/>
          <path class="cls-1" d="M9.89,67.89c0-1.71,1.28-2.98,2.91-2.98s2.92,1.27,2.92,2.98-1.28,2.96-2.92,2.96-2.91-1.26-2.91-2.96ZM12.8,70.09c1.07,0,2.06-.82,2.06-2.2s-.99-2.22-2.06-2.22-2.06.82-2.06,2.22,1,2.2,2.06,2.2Z"/>
          <path class="cls-1" d="M20.55,67.89c0-1.71,1.28-2.98,2.91-2.98s2.92,1.27,2.92,2.98-1.28,2.96-2.92,2.96-2.91-1.26-2.91-2.96ZM23.46,70.09c1.07,0,2.06-.82,2.06-2.2s-.99-2.22-2.06-2.22-2.06.82-2.06,2.22,1,2.2,2.06,2.2Z"/>
          <path class="cls-1" d="M31.59,65h1.72c1.23,0,2,.84,2,1.87s-.77,1.88-2,1.88h-.89v2.03h-.83v-5.78ZM33.22,68c.78,0,1.23-.45,1.23-1.14s-.45-1.12-1.22-1.12h-.82v2.26h.81Z"/>
          <path class="cls-1" d="M40.41,65h3.26l.14.75h-2.56v1.75h2.26v.71h-2.26v1.82h2.66l-.15.75h-3.34v-5.78Z"/>
          <path class="cls-1" d="M49.07,65h1.73c1.27,0,1.97.76,1.97,1.73,0,.77-.44,1.35-1.11,1.62l1.83,2.42h-1.01l-1.66-2.25h-.93v2.25h-.83v-5.78ZM50.73,67.8c.72,0,1.18-.37,1.18-1.02s-.48-1.04-1.15-1.04h-.86v2.06h.83Z"/>
          <path class="cls-1" d="M60.03,64.96h.35l2.53,5.82h-.87l-.64-1.53h-2.39l-.64,1.53h-.87l2.52-5.82ZM61.11,68.53l-.89-2.15h-.02l-.89,2.15h1.8Z"/>
          <path class="cls-1" d="M69,65.75h-1.86v-.75h4.55v.75h-1.86v5.03h-.83v-5.03Z"/>
          <path class="cls-1" d="M76.66,65h.83v5.78h-.83v-5.78Z"/>
          <path class="cls-1" d="M83.24,65l1.77,4.32h.03l1.78-4.32h.87l-2.51,5.82h-.32l-2.53-5.82h.91Z"/>
          <path class="cls-1" d="M92.55,65h3.26l.14.75h-2.56v1.75h2.26v.71h-2.26v1.82h2.66l-.15.75h-3.34v-5.78Z"/>
          <path class="cls-1" d="M111.09,68.27h-3.04v2.51h-.83v-5.78h.83v2.52h3.04v-2.52h.83v5.78h-.83v-2.51Z"/>
          <path class="cls-1" d="M117.13,67.89c0-1.71,1.28-2.98,2.91-2.98s2.92,1.27,2.92,2.98-1.28,2.96-2.92,2.96-2.91-1.26-2.91-2.96ZM120.05,70.09c1.07,0,2.06-.82,2.06-2.2s-.99-2.22-2.06-2.22-2.06.82-2.06,2.22,1,2.2,2.06,2.2Z"/>
          <path class="cls-1" d="M128.09,68.42v-3.42h.83v3.41c0,1.1.61,1.7,1.55,1.7s1.54-.6,1.54-1.69v-3.42h.82v3.43c0,1.44-.95,2.43-2.36,2.43s-2.38-.99-2.38-2.44Z"/>
          <path class="cls-1" d="M138.08,70.3l-.13-1.01c.51.51,1.28.8,1.89.8s1.03-.33,1.03-.84c0-.56-.52-.78-1.16-1.07-.91-.4-1.57-.8-1.57-1.7s.71-1.56,1.85-1.56c.43,0,.95.11,1.32.31l.13.97c-.49-.37-1.03-.53-1.49-.53-.64,0-.98.35-.98.76,0,.56.62.78,1.24,1.06.81.35,1.49.77,1.49,1.7,0,1.04-.84,1.65-1.89,1.65-.59,0-1.18-.15-1.72-.54Z"/>
          <path class="cls-1" d="M146.87,65h3.26l.14.75h-2.56v1.75h2.26v.71h-2.26v1.82h2.66l-.15.75h-3.34v-5.78Z"/>
        </g>
        <g>
          <path class="cls-1" d="M274.47,68.57h-35.26V0h35.26v68.57ZM240.12,67.67h33.46V.9h-33.46v66.77Z"/>
          <rect class="cls-1" x="239.66" y="26.79" width="34.36" height=".9"/>
          <path class="cls-1" d="M239.55,27.7h-26.56c-.31,0-.57-.25-.57-.57v-2.97c0-6.45,2.51-12.52,7.07-17.08C224.06,2.51,230.12,0,236.57,0h2.98c.31,0,.57.25.57.57v26.56c0,.31-.25.57-.57.57ZM213.32,26.79h25.89V.9h-2.64c-6.21,0-12.05,2.42-16.44,6.81-4.39,4.39-6.81,10.23-6.81,16.44v2.64Z"/>
        </g>
        <polygon class="cls-1" points="274.47 68.57 161.54 68.57 161.54 67.67 273.57 67.67 273.57 .9 4.31 .9 4.31 17.84 3.41 17.84 3.41 0 274.47 0 274.47 68.57"/>
        <rect class="cls-1" x="230.15" y="47.23" width="53.4" height=".9" transform="translate(55.11 213.66) rotate(-49.96)"/>
      </g>
    </g>
  </g>
</svg>