<?xml version="1.0" encoding="UTF-8"?>
<svg id="_レイヤー_1" data-name="レイヤー_1" xmlns="http://www.w3.org/2000/svg" version="1.1" xmlns:xlink="http://www.w3.org/1999/xlink" viewBox="0 0 137.2 35.4">
  <!-- Generator: Adobe Illustrator 29.2.1, SVG Export Plug-In . SVG Version: 2.1.0 Build 116)  -->
  <defs>
    <style>
      .st0 {
        fill: #684723;
      }

      .st1 {
        filter: url(#outer-glow-1);
      }
    </style>
    <filter id="outer-glow-1" x="0" y="0" width="137.2" height="35.4" filterUnits="userSpaceOnUse">
      <feOffset dx="0" dy="0"/>
      <feGaussianBlur result="blur" stdDeviation="13"/>
      <feFlood flood-color="#000" flood-opacity=".5"/>
      <feComposite in2="blur" operator="in"/>
      <feComposite in="SourceGraphic"/>
    </filter>
  </defs>
  <g class="st1">
    <g>
      <g>
        <path class="st0" d="M.6,18.6v-.8c.4.5,1.1.8,1.8.8s1.2-.4,1.2-1-.5-1-1.3-1.3c-.9-.4-1.6-.8-1.6-1.7s.7-1.5,1.8-1.5.9.1,1.3.3v.8c-.3-.4-.9-.6-1.3-.6-.8,0-1.2.4-1.2.9s.7.9,1.4,1.3c.8.4,1.5.8,1.5,1.7s-.8,1.6-1.8,1.6-1.2-.1-1.8-.6Z"/>
        <path class="st0" d="M9.5,13.1h3.2v.5c.1,0-2.7,0-2.7,0v2.1h2.5v.5h-2.5v2.2h2.9v.5h-3.4v-6Z"/>
        <path class="st0" d="M19.5,13.7h-2v-.5h4.5v.5h-2v5.4h-.6v-5.4Z"/>
        <path class="st0" d="M28.8,13.1h.3l2.5,6h-.6l-.8-1.8h-2.6l-.8,1.8h-.6l2.5-6ZM30,16.7l-1.1-2.6h0l-1.1,2.6h2.2Z"/>
        <path class="st0" d="M36.1,16.1c0-1.7,1.3-3.1,3.1-3.1s1.3.2,1.8.4v.8c-.4-.4-1-.6-1.7-.6-1.3,0-2.5.9-2.5,2.5s1.1,2.5,2.6,2.5,1,0,1.4-.3v-1.6h-1.5l.2-.5h1.9v2.4c-.5.3-1.2.5-2,.5-1.9,0-3.1-1.4-3.1-3.1Z"/>
        <path class="st0" d="M48.4,13.1h.3l2.5,6h-.6l-.8-1.8h-2.6l-.8,1.8h-.6l2.5-6ZM49.6,16.7l-1.1-2.6h0l-1.1,2.6h2.2Z"/>
        <path class="st0" d="M57.6,16.6l-2.2-3.4h.7l1.8,2.9,1.8-2.9h.7l-2.2,3.4v2.5h-.6v-2.5Z"/>
        <path class="st0" d="M67.1,13.1h.3l2.5,6h-.6l-.8-1.8h-2.6l-.8,1.8h-.6l2.5-6ZM68.3,16.7l-1.1-2.6h0l-1.1,2.6h2.2Z"/>
      </g>
      <g>
        <g>
          <path class="st0" d="M2.7,22.7h.4l2.7,6h-1.1l-.6-1.4H1.7l-.6,1.4H0l2.6-6ZM3.7,26.4l-.8-2h0l-.8,2h1.6Z"/>
          <path class="st0" d="M5.8,28.7h-1.2s-.6-1.4-.6-1.4H1.7l-.6,1.4H0h0s2.7-6.1,2.7-6.1h.5l2.7,6.1ZM4.7,28.7h1l-2.6-5.9h-.4L0,28.7h1l.6-1.4h2.4s.6,1.4.6,1.4ZM3.8,26.4h-1.7l.8-2h0s.8,2,.8,2ZM2.1,26.4h1.6l-.8-1.9-.8,1.9Z"/>
        </g>
        <g>
          <path class="st0" d="M10.5,22.7h1.1v2.7l2.4-2.7h1.3l-2.2,2.5,2.4,3.5h-1.2l-1.9-2.7-.8.8v1.9h-1.1v-6Z"/>
          <path class="st0" d="M15.4,28.7h-1.3s-1.9-2.7-1.9-2.7l-.7.8v1.9h-1.1v-6h1.1v2.7l2.4-2.7h1.4l-2.2,2.5,2.4,3.5ZM14.2,28.7h1.2l-2.4-3.5h0s2.2-2.4,2.2-2.4h-1.2l-2.4,2.8v-2.8h-1v5.9h1v-1.9l.8-.9,1.9,2.8Z"/>
        </g>
        <g>
          <path class="st0" d="M21.9,22.7h.4l2.7,6h-1.1l-.6-1.4h-2.4l-.6,1.4h-1.1l2.6-6ZM23,26.4l-.8-2h0l-.8,2h1.6Z"/>
          <path class="st0" d="M25.1,28.7h-1.2s-.6-1.4-.6-1.4h-2.3l-.6,1.4h-1.2,0s2.7-6.1,2.7-6.1h.5l2.7,6.1ZM23.9,28.7h1l-2.6-5.9h-.4l-2.6,5.9h1l.6-1.4h2.4s.6,1.4.6,1.4ZM23,26.4h-1.7l.8-2h0s.8,2,.8,2ZM21.4,26.4h1.6l-.8-1.9-.8,1.9Z"/>
        </g>
        <g>
          <path class="st0" d="M31,23.7h-1.9v-.9h4.8v.9h-1.9v5h-1.1v-5Z"/>
          <path class="st0" d="M32.1,28.7h-1.1v-5h-1.9v-1h4.8v1h-1.9v5ZM31,28.7h1v-5h1.9v-.9h-4.7v.9h1.9v5Z"/>
        </g>
        <g>
          <path class="st0" d="M38.6,28.2v-1.2c.4.5,1.2.8,1.8.8s1-.3,1-.8-.5-.7-1.2-1c-1-.4-1.6-.8-1.6-1.8s.7-1.7,2-1.7,1,.1,1.4.3v1.2c-.4-.4-.9-.5-1.4-.5s-.9.3-.9.7.6.7,1.2,1c.8.3,1.5.8,1.5,1.8s-.9,1.8-2,1.8-1.2-.2-1.8-.6Z"/>
          <path class="st0" d="M40.4,28.8c-.7,0-1.3-.2-1.8-.6h0s-.1-1.3-.1-1.3h0c.6.6,1.4.9,1.9.9s.9-.3.9-.7-.4-.6-1-.9c0,0-.1,0-.2,0-1-.4-1.6-.9-1.6-1.8s.8-1.7,2-1.7,1,.1,1.4.3h0s0,0,0,0v1.2c.1,0,0,0,0,0-.5-.3-1.1-.5-1.6-.5s-.9.3-.9.7.5.6,1,.9c0,0,.1,0,.2,0,.8.3,1.6.7,1.6,1.8s-.8,1.8-2,1.8ZM38.6,28.2c.5.4,1.1.5,1.8.5,1.2,0,2-.7,2-1.7s-.8-1.4-1.5-1.7c0,0-.1,0-.2,0-.6-.2-1.1-.4-1.1-.9s.3-.7.9-.7,1.1.2,1.5.5v-1.1c-.5-.2-1.1-.3-1.5-.3-1.2,0-2,.6-2,1.7s.6,1.3,1.6,1.8c0,0,.1,0,.2,0,.5.2,1,.4,1,.9s-.4.8-1,.8-1.3-.2-1.9-.8v1.1Z"/>
        </g>
        <g>
          <path class="st0" d="M47.4,26.2v-3.5h1.1v3.5c0,1.1.6,1.6,1.4,1.6s1.5-.5,1.5-1.6v-3.5h1v3.5c0,1.6-1.1,2.5-2.5,2.5s-2.5-.9-2.5-2.5Z"/>
          <path class="st0" d="M49.9,28.8c-1.5,0-2.5-1-2.5-2.6v-3.5h1.1v3.5c0,1,.5,1.6,1.4,1.6s1.4-.6,1.4-1.6v-3.5h1.1v3.5c0,1.5-1,2.6-2.5,2.6ZM47.4,22.8v3.5c0,1.5,1,2.5,2.5,2.5s2.5-1,2.5-2.5v-3.5h-1v3.5c0,1-.6,1.6-1.5,1.6s-1.5-.6-1.5-1.6v-3.5h-1Z"/>
        </g>
        <g>
          <path class="st0" d="M59,23.7h-1.9v-.9h4.8v.9h-1.9v5h-1.1v-5Z"/>
          <path class="st0" d="M60.1,28.7h-1.1v-5h-1.9v-1h4.8v1h-1.9v5ZM59.1,28.7h1v-5h1.9v-.9h-4.7v.9h1.9v5Z"/>
        </g>
        <g>
          <path class="st0" d="M66.6,28.2v-1.2c.4.5,1.2.8,1.8.8s1-.3,1-.8-.5-.7-1.2-1c-1-.4-1.6-.8-1.6-1.8s.7-1.7,2-1.7,1,.1,1.4.3v1.2c-.4-.4-.9-.5-1.4-.5s-.9.3-.9.7.6.7,1.2,1c.8.3,1.5.8,1.5,1.8s-.9,1.8-2,1.8-1.2-.2-1.8-.6Z"/>
          <path class="st0" d="M68.4,28.8c-.7,0-1.3-.2-1.8-.6h0s-.1-1.3-.1-1.3h0c.6.6,1.4.9,1.9.9s.9-.3.9-.7-.4-.6-1-.9c0,0-.1,0-.2,0-1-.4-1.6-.9-1.6-1.8s.8-1.7,2-1.7,1,.1,1.4.3h0s0,0,0,0v1.2c.1,0,0,0,0,0-.5-.3-1.1-.5-1.6-.5s-.9.3-.9.7.5.6,1,.9c0,0,.1,0,.2,0,.8.3,1.6.7,1.6,1.8s-.8,1.8-2,1.8ZM66.6,28.2c.5.4,1.1.5,1.8.5,1.2,0,2-.7,2-1.7s-.8-1.4-1.5-1.7c0,0-.1,0-.2,0-.6-.2-1.1-.4-1.1-.9s.3-.7.9-.7,1.1.2,1.5.5v-1.1c-.5-.2-1.1-.3-1.5-.3-1.2,0-2,.6-2,1.7s.6,1.3,1.6,1.8c0,0,.1,0,.2,0,.5.2,1,.4,1,.9s-.4.8-1,.8-1.3-.2-1.9-.8v1.1Z"/>
        </g>
        <g>
          <path class="st0" d="M75.4,26.2v-3.5h1.1v3.5c0,1.1.6,1.6,1.4,1.6s1.5-.5,1.5-1.6v-3.5h1v3.5c0,1.6-1.1,2.5-2.5,2.5s-2.5-.9-2.5-2.5Z"/>
          <path class="st0" d="M77.9,28.8c-1.5,0-2.5-1-2.5-2.6v-3.5h1.1v3.5c0,1,.5,1.6,1.4,1.6s1.4-.6,1.4-1.6v-3.5h1.1v3.5c0,1.5-1,2.6-2.5,2.6ZM75.4,22.8v3.5c0,1.5,1,2.5,2.5,2.5s2.5-1,2.5-2.5v-3.5h-1v3.5c0,1-.6,1.6-1.5,1.6s-1.5-.6-1.5-1.6v-3.5h-1Z"/>
        </g>
        <g>
          <path class="st0" d="M85.8,22.7h.4l2.5,3h0l2.4-3h.4v6h-1v-3.8l-1.8,2.1h-.1l-1.8-2.1v3.8h-1v-6Z"/>
          <path class="st0" d="M91.6,28.7h-1.1v-3.8l-1.7,2.1h-.2s-1.8-2.1-1.8-2.1v3.8h-1.1v-6.1h.5s2.5,3,2.5,3l2.4-3h.5v6.1ZM90.5,28.7h1v-6h-.4l-2.4,3h0s-2.5-3-2.5-3h-.4v6h1v-3.9l1.9,2.2h.1l1.8-2.2v3.9Z"/>
        </g>
        <g>
          <path class="st0" d="M97,22.7h1.1v6h-1.1v-6Z"/>
          <path class="st0" d="M98.1,28.7h-1.1v-6h1.1v6ZM97,28.7h1v-5.9h-1v5.9Z"/>
        </g>
      </g>
      <g>
        <path class="st0" d="M.2,33.9c0-.9.6-1.5,1.5-1.5s.6,0,.8.2v.5c-.2-.2-.4-.3-.7-.3-.6,0-1,.5-1,1.1s.4,1.1,1.1,1.1.6-.1.9-.3v.5c-.3.1-.6.2-.9.2-.9,0-1.5-.6-1.5-1.5Z"/>
        <path class="st0" d="M4.9,33.9c0-.9.6-1.5,1.5-1.5s1.5.6,1.5,1.5-.6,1.5-1.5,1.5-1.5-.6-1.5-1.5ZM6.4,35c.5,0,1-.4,1-1.1s-.5-1.1-1-1.1-1,.4-1,1.1.5,1.1,1,1.1Z"/>
        <path class="st0" d="M10.3,33.9c0-.9.6-1.5,1.5-1.5s1.5.6,1.5,1.5-.6,1.5-1.5,1.5-1.5-.6-1.5-1.5ZM11.7,35c.5,0,1-.4,1-1.1s-.5-1.1-1-1.1-1,.4-1,1.1.5,1.1,1,1.1Z"/>
        <path class="st0" d="M15.8,32.5h.9c.6,0,1,.4,1,.9s-.4.9-1,.9h-.4v1h-.4v-2.9ZM16.6,34c.4,0,.6-.2.6-.6s-.2-.6-.6-.6h-.4v1.1h.4Z"/>
        <path class="st0" d="M20.2,32.5h1.6v.4c0,0-1.2,0-1.2,0v.9h1.1v.4h-1.1v.9h1.3v.4h-1.7v-2.9Z"/>
        <path class="st0" d="M24.5,32.5h.9c.6,0,1,.4,1,.9s-.2.7-.6.8l.9,1.2h-.5l-.8-1.1h-.5v1.1h-.4v-2.9ZM25.4,33.9c.4,0,.6-.2.6-.5s-.2-.5-.6-.5h-.4v1h.4Z"/>
        <path class="st0" d="M30,32.5h.2l1.3,2.9h-.4l-.3-.8h-1.2l-.3.8h-.4l1.3-2.9ZM30.6,34.3l-.4-1.1h0l-.4,1.1h.9Z"/>
        <path class="st0" d="M34.5,32.9h-.9v-.4h2.3v.4h-.9v2.5h-.4v-2.5Z"/>
        <path class="st0" d="M38.3,32.5h.4v2.9h-.4v-2.9Z"/>
        <path class="st0" d="M41.6,32.5l.9,2.2h0l.9-2.2h.4l-1.3,2.9h-.2l-1.3-2.9h.5Z"/>
        <path class="st0" d="M46.3,32.5h1.6v.4c0,0-1.2,0-1.2,0v.9h1.1v.4h-1.1v.9h1.3v.4h-1.7v-2.9Z"/>
        <path class="st0" d="M55.5,34.1h-1.5v1.3h-.4v-2.9h.4v1.3h1.5v-1.3h.4v2.9h-.4v-1.3Z"/>
        <path class="st0" d="M58.6,33.9c0-.9.6-1.5,1.5-1.5s1.5.6,1.5,1.5-.6,1.5-1.5,1.5-1.5-.6-1.5-1.5ZM60,35c.5,0,1-.4,1-1.1s-.5-1.1-1-1.1-1,.4-1,1.1.5,1.1,1,1.1Z"/>
        <path class="st0" d="M64,34.2v-1.7h.4v1.7c0,.6.3.8.8.8s.8-.3.8-.8v-1.7h.4v1.7c0,.7-.5,1.2-1.2,1.2s-1.2-.5-1.2-1.2Z"/>
        <path class="st0" d="M69,35.1v-.5c.2.3.6.4.9.4s.5-.2.5-.4-.3-.4-.6-.5c-.5-.2-.8-.4-.8-.8s.4-.8.9-.8.5,0,.7.2v.5c-.2-.2-.5-.3-.7-.3s-.5.2-.5.4.3.4.6.5c.4.2.7.4.7.8s-.4.8-.9.8-.6,0-.9-.3Z"/>
        <path class="st0" d="M73.4,32.5h1.6v.4c0,0-1.2,0-1.2,0v.9h1.1v.4h-1.1v.9h1.3v.4h-1.7v-2.9Z"/>
      </g>
      <g>
        <path class="st0" d="M137.2,34.3h-17.6V0h17.6v34.3ZM120.1,33.8h16.7V.5h-16.7v33.4Z"/>
        <rect class="st0" x="119.8" y="13.4" width="17.2" height=".5"/>
        <path class="st0" d="M119.8,13.8h-13.3c-.2,0-.3-.1-.3-.3v-1.5c0-3.2,1.3-6.3,3.5-8.5C112,1.3,115.1,0,118.3,0h1.5c.2,0,.3.1.3.3v13.3c0,.2-.1.3-.3.3ZM106.7,13.4h12.9V.5h-1.3c-3.1,0-6,1.2-8.2,3.4-2.2,2.2-3.4,5.1-3.4,8.2v1.3Z"/>
      </g>
      <polygon class="st0" points="137.2 34.3 80.8 34.3 80.8 33.8 136.8 33.8 136.8 .5 2.2 .5 2.2 8.9 1.7 8.9 1.7 0 137.2 0 137.2 34.3"/>
      <rect class="st0" x="115.1" y="23.6" width="26.7" height=".5" transform="translate(27.6 106.8) rotate(-50)"/>
    </g>
  </g>
</svg>