<?xml version="1.0" encoding="UTF-8"?>
<svg xmlns="http://www.w3.org/2000/svg" version="1.1" viewBox="0 0 132.7 35.9">
  <defs>
    <style>
      .cls-1 {
        stroke-width: .2px;
      }

      .cls-1, .cls-2 {
        fill: #fff;
      }

      .cls-1, .cls-3 {
        stroke: #fff;
        stroke-miterlimit: 10;
      }

      .cls-3 {
        fill: none;
        stroke-width: 1.7px;
      }
    </style>
  </defs>
  <!-- Generator: Adobe Illustrator 28.7.2, SVG Export Plug-In . SVG Version: 1.2.0 Build 154)  -->
  <g>
    <g id="_レイヤー_1" data-name="レイヤー_1">
      <g>
        <g>
          <path class="cls-2" d="M.6,18.5v-.8c.4.5,1.1.8,1.7.8s1.2-.4,1.2-1-.5-.9-1.2-1.3c-.8-.4-1.5-.8-1.5-1.7s.7-1.4,1.7-1.4.9.1,1.2.3v.7c-.3-.4-.9-.5-1.3-.5-.7,0-1.1.4-1.1.9s.7.9,1.3,1.2c.8.4,1.4.8,1.4,1.7s-.8,1.6-1.8,1.6-1.1-.1-1.7-.5Z"/>
          <path class="cls-2" d="M9.2,13.3h3.1v.5c.1,0-2.6,0-2.6,0v2.1h2.4v.5h-2.4v2.1h2.8v.5h-3.3v-5.7Z"/>
          <path class="cls-2" d="M18.8,13.8h-1.9v-.5h4.4v.5h-1.9v5.2h-.6v-5.2Z"/>
          <path class="cls-2" d="M27.8,13.2h.3l2.4,5.8h-.6l-.7-1.7h-2.5l-.7,1.7h-.6l2.4-5.8ZM28.9,16.7l-1-2.5h0l-1,2.5h2.1Z"/>
          <path class="cls-2" d="M34.8,16.1c0-1.6,1.2-2.9,3-2.9s1.3.2,1.7.4v.7c-.4-.4-1-.6-1.7-.6-1.3,0-2.5.9-2.5,2.4s1,2.4,2.5,2.4.9,0,1.3-.3v-1.5h-1.5l.2-.5h1.9v2.4c-.5.3-1.2.5-1.9.5-1.8,0-3-1.4-3-2.9Z"/>
          <path class="cls-2" d="M46.7,13.2h.3l2.4,5.8h-.6l-.7-1.7h-2.5l-.7,1.7h-.6l2.4-5.8ZM47.8,16.7l-1-2.5h0l-1,2.5h2.1Z"/>
          <path class="cls-2" d="M55.5,16.6l-2.1-3.3h.7l1.7,2.8,1.7-2.8h.6l-2.1,3.3v2.4h-.6v-2.4Z"/>
          <path class="cls-2" d="M64.7,13.2h.3l2.4,5.8h-.6l-.7-1.7h-2.5l-.7,1.7h-.6l2.4-5.8ZM65.8,16.7l-1-2.5h0l-1,2.5h2.1Z"/>
        </g>
        <g>
          <path class="cls-1" d="M2.6,22.5h.4l2.6,5.8h-1.1l-.6-1.3H1.7l-.6,1.3H.1l2.5-5.8ZM3.6,26l-.8-1.9h0l-.8,1.9h1.6Z"/>
          <path class="cls-1" d="M10.1,22.5h1v2.6l2.3-2.6h1.2l-2.1,2.4,2.3,3.3h-1.2l-1.8-2.6-.7.8v1.8h-1v-5.7Z"/>
          <path class="cls-1" d="M21.2,22.5h.4l2.6,5.8h-1.1l-.6-1.3h-2.3l-.6,1.3h-1.1l2.5-5.8ZM22.2,26l-.8-1.9h0l-.8,1.9h1.6Z"/>
          <path class="cls-1" d="M29.9,23.4h-1.8v-.9h4.6v.9h-1.8v4.8h-1v-4.8Z"/>
          <path class="cls-1" d="M37.2,27.8v-1.2c.4.5,1.2.8,1.7.8s.9-.3.9-.7-.5-.7-1.1-.9c-.9-.4-1.6-.8-1.6-1.7s.7-1.6,1.9-1.6,1,.1,1.3.3v1.1c-.4-.4-.9-.5-1.4-.5s-.9.3-.9.7.6.7,1.2.9c.8.3,1.5.7,1.5,1.7s-.9,1.7-1.9,1.7-1.2-.2-1.7-.5Z"/>
          <path class="cls-1" d="M45.6,25.9v-3.4h1v3.4c0,1.1.6,1.6,1.4,1.6s1.4-.5,1.4-1.5v-3.4h1v3.4c0,1.5-1.1,2.4-2.4,2.4s-2.4-.9-2.4-2.4Z"/>
          <path class="cls-1" d="M56.9,23.4h-1.8v-.9h4.6v.9h-1.8v4.8h-1v-4.8Z"/>
          <path class="cls-1" d="M64.1,27.8v-1.2c.4.5,1.2.8,1.7.8s.9-.3.9-.7-.5-.7-1.1-.9c-.9-.4-1.6-.8-1.6-1.7s.7-1.6,1.9-1.6,1,.1,1.3.3v1.1c-.4-.4-.9-.5-1.4-.5s-.9.3-.9.7.6.7,1.2.9c.8.3,1.5.7,1.5,1.7s-.9,1.7-1.9,1.7-1.2-.2-1.7-.5Z"/>
          <path class="cls-1" d="M72.6,25.9v-3.4h1v3.4c0,1.1.6,1.6,1.4,1.6s1.4-.5,1.4-1.5v-3.4h1v3.4c0,1.5-1.1,2.4-2.4,2.4s-2.4-.9-2.4-2.4Z"/>
          <path class="cls-1" d="M82.6,22.5h.4l2.4,2.8h0l2.3-2.8h.4v5.8h-1v-3.7l-1.7,2h-.1l-1.8-2v3.7h-1v-5.8Z"/>
          <path class="cls-1" d="M93.4,22.5h1v5.7h-1v-5.7Z"/>
        </g>
        <g>
          <path class="cls-2" d="M.3,33.3c0-.8.6-1.4,1.4-1.4s.5,0,.7.2v.5c-.2-.2-.4-.3-.7-.3-.6,0-1,.4-1,1.1s.4,1.1,1,1.1.6-.1.8-.3v.5c-.3.1-.5.2-.8.2-.9,0-1.4-.6-1.4-1.4Z"/>
          <path class="cls-2" d="M4.8,33.3c0-.8.6-1.4,1.4-1.4s1.4.6,1.4,1.4-.6,1.4-1.4,1.4-1.4-.6-1.4-1.4ZM6.2,34.4c.5,0,1-.4,1-1.1s-.5-1.1-1-1.1-1,.4-1,1.1.5,1.1,1,1.1Z"/>
          <path class="cls-2" d="M9.9,33.3c0-.8.6-1.4,1.4-1.4s1.4.6,1.4,1.4-.6,1.4-1.4,1.4-1.4-.6-1.4-1.4ZM11.4,34.4c.5,0,1-.4,1-1.1s-.5-1.1-1-1.1-1,.4-1,1.1.5,1.1,1,1.1Z"/>
          <path class="cls-2" d="M15.3,31.9h.8c.6,0,1,.4,1,.9s-.4.9-1,.9h-.4v1h-.4v-2.8ZM16,33.3c.4,0,.6-.2.6-.5s-.2-.5-.6-.5h-.4v1.1h.4Z"/>
          <path class="cls-2" d="M19.5,31.9h1.6v.4c0,0-1.2,0-1.2,0v.8h1.1v.3h-1.1v.9h1.3v.4h-1.7v-2.8Z"/>
          <path class="cls-2" d="M23.7,31.9h.8c.6,0,.9.4.9.8s-.2.7-.5.8l.9,1.2h-.5l-.8-1.1h-.4v1.1h-.4v-2.8ZM24.5,33.3c.3,0,.6-.2.6-.5s-.2-.5-.6-.5h-.4v1h.4Z"/>
          <path class="cls-2" d="M28.9,31.9h.2l1.2,2.8h-.4l-.3-.7h-1.1l-.3.7h-.4l1.2-2.8ZM29.5,33.6l-.4-1h0l-.4,1h.9Z"/>
          <path class="cls-2" d="M33.3,32.3h-.9v-.4h2.2v.4h-.9v2.4h-.4v-2.4Z"/>
          <path class="cls-2" d="M36.9,31.9h.4v2.8h-.4v-2.8Z"/>
          <path class="cls-2" d="M40.1,31.9l.9,2.1h0l.9-2.1h.4l-1.2,2.8h-.2l-1.2-2.8h.4Z"/>
          <path class="cls-2" d="M44.6,31.9h1.6v.4c0,0-1.2,0-1.2,0v.8h1.1v.3h-1.1v.9h1.3v.4h-1.7v-2.8Z"/>
          <path class="cls-2" d="M53.5,33.5h-1.5v1.2h-.4v-2.8h.4v1.2h1.5v-1.2h.4v2.8h-.4v-1.2Z"/>
          <path class="cls-2" d="M56.4,33.3c0-.8.6-1.4,1.4-1.4s1.4.6,1.4,1.4-.6,1.4-1.4,1.4-1.4-.6-1.4-1.4ZM57.8,34.4c.5,0,1-.4,1-1.1s-.5-1.1-1-1.1-1,.4-1,1.1.5,1.1,1,1.1Z"/>
          <path class="cls-2" d="M61.7,33.5v-1.6h.4v1.6c0,.5.3.8.7.8s.7-.3.7-.8v-1.6h.4v1.7c0,.7-.5,1.2-1.1,1.2s-1.1-.5-1.1-1.2Z"/>
          <path class="cls-2" d="M66.5,34.5v-.5c.2.2.6.4.8.4s.5-.2.5-.4-.2-.4-.6-.5c-.4-.2-.8-.4-.8-.8s.3-.8.9-.8.5,0,.6.2v.5c-.2-.2-.4-.3-.7-.3s-.5.2-.5.4.3.4.6.5c.4.2.7.4.7.8s-.4.8-.9.8-.6,0-.8-.3Z"/>
          <path class="cls-2" d="M70.7,31.9h1.6v.4c0,0-1.2,0-1.2,0v.8h1.1v.3h-1.1v.9h1.3v.4h-1.7v-2.8Z"/>
        </g>
        <g>
          <rect class="cls-3" x="115.4" y=".9" width="16.5" height="32.6"/>
          <line class="cls-3" x1="115.4" y1="13.7" x2="131.9" y2="13.7"/>
          <path class="cls-3" d="M115.3.9h0s0,0,0,0v12.8s0,0,0,0h-12.8s0,0,0,0h0c0-7.1,5.7-12.8,12.8-12.8Z"/>
        </g>
        <polyline class="cls-3" points="1.9 9.2 1.9 .9 131.9 .9 131.9 33.4 77.8 33.4"/>
        <line class="cls-3" x1="115.4" y1="33.4" x2="131.9" y2="13.7"/>
      </g>
    </g>
  </g>
</svg>